<svg width="215" height="242" viewBox="0 0 215 242" fill="none" xmlns="http://www.w3.org/2000/svg">
<path d="M206 99L207 86H209L208.5 99H206Z" fill="#F09756"/>
<path d="M90 58.5C87.6 50.9 86.6667 31.3333 86.5 22.5C92.9 19.3 101.333 17.3333 103.5 17C102.7 28.2 105 47.5 106.5 55.5C100.9 55.9 92.5 57.6667 90 58.5Z" fill="#59A3E8"/>
<path d="M156 85.5C155 82.5 150 66.6667 147 59.5C149.8 59.5 166 64.5 174 67.5C176.396 75.4862 180.451 91.4922 183 105.5C185.238 117.802 185.432 128.338 187 135C189 143.5 192 153.667 192.5 157.5L185 149C186.667 157.833 191.174 176.043 192 181C193 187 194.205 195.765 190.5 197C187.5 198 186.5 198.5 185.5 212.5C184.3 230.5 181 236 176.5 238C176.5 232 175.5 221.5 172 216C168.201 210.03 167 208.833 167.5 208.5C166.333 208.833 164.3 209.9 165.5 211.5C167.9 215.9 167.833 217 167.5 217C167.5 216 162 214 160 208.5C158.827 205.274 160.5 200.5 162 195.5C162.522 191.855 161.86 187.928 160 184C155.5 174.5 158 158.5 158.5 152.5C159 146.5 154 139.5 152.5 135C151 130.5 152.5 126 155 113C157.428 100.376 157.275 89.3243 156 85.5Z" fill="#5C5C5C"/>
<path d="M83.0001 84C83.8001 82 86.0001 72.1667 87.0001 67.5C87.1667 68.6667 87.5001 71.3 87.5001 72.5C87.5001 74 89.0001 75.5 89.0001 77.5C89.0001 79.5 86.5001 92 88.0001 97.5C89.5001 103 101 119 103 121.5C104.6 123.5 108.667 128.667 110.5 131C111.333 137.5 112 150.722 109.5 151C98.9999 152.167 94.5001 154 92.0001 158C80.0001 174.5 81 171 76.5 174C72 177 70.4999 187.5 65.4999 192.5C62.4999 195.5 56.0001 199 54.0001 202.5C50.9999 215 40.8334 215.667 36.0001 215C45.0001 210.5 44.0001 206 40.5001 198.5C37.7001 192.5 45.0001 182.667 49.0001 178.5C41.9999 183 37.4998 190.5 35.9999 193C34.4999 189 41.5 178 45.8122 173.713C50.0819 169.468 52.5966 164.13 53.8122 155.213C54.9999 146.5 54.5001 142 60.0001 137.5L60.2026 137.362C71.0185 129.988 72.5032 128.975 73.0001 125C73.5001 121 75.0001 102 78.0001 96C81.0001 90 82.0001 86.5 83.0001 84Z" fill="#5C5C5C"/>
<path d="M53.3602 153C50.2225 153.391 42.8881 155.814 38.6522 162.379C33.3574 170.586 6.29485 210.448 1 223.931M210 179.5C210 181.845 211.617 199.5 212.794 216.5C213.735 230.1 211.225 229.971 209.852 241.5" stroke="#353535" stroke-width="0.5"/>
<path d="M110 150.5C110.196 153.261 111.885 161.297 117.068 168.396C121.192 170.368 130.145 168.632 132.973 145.916L153 140" stroke="#353535" stroke-width="0.5"/>
<path d="M82.2817 25.6504C91.6901 17.6292 123.561 6.75168 175.778 27.4111M82.2817 25.6504C82.2817 29.4066 83.8498 50.6922 84.6338 60.8654C109.096 48.188 154.413 59.8872 174.014 67.3215L175.778 27.4111M82.2817 25.6504H47C53.2723 19.7812 71.6972 6.63439 95.2183 1C131.48 4.71713 204.709 12.5036 207.532 13.9122C210.354 15.3207 213.02 18.0206 214 19.1944M175.778 27.4111C181.962 24.9421 199.136 21.692 209.884 19.8727M214 19.1944C212.788 19.3879 211.4 19.616 209.884 19.8727M214 19.1944C212.236 28.5851 207.532 98.4281 208.708 108.993C209.649 117.444 209.792 132 209.5 134.5C209.208 137 201 137.5 201.5 134C202.828 124.704 207.532 98.4281 206.944 84.929C206.473 74.1297 208.708 37.0584 209.884 19.8727" stroke="#353535" stroke-width="0.5"/>
<path d="M87.9999 59.5C87.2095 63.218 86.1503 70.9758 88.0473 74.2632C90.4186 78.3726 85.6761 90.7006 88.0473 97.1581C90.4186 103.616 97.3502 114.77 101.5 119.466C105.65 124.162 109.389 133.555 117.688 132.968C125.988 132.381 144.958 124.162 149.7 119.466C153.494 115.709 155.814 102.783 157 97.5" stroke="#353535" stroke-width="0.5"/>
<path d="M88 59.5C87.1041 66.9543 84.0582 84.5991 79.0411 93.5442C72.7697 104.726 75.0095 124.146 71.4259 128.854C67.8422 133.562 55.7475 137.093 54.8516 145.92C53.9557 154.748 54.4036 164.752 46.7884 172.403C39.1732 180.053 35 190 36.0001 193.5" stroke="#353535" stroke-width="0.5"/>
<path d="M147 59.5C150.5 68 156.067 82.8385 157 88.5C158.167 95.5769 154.583 116.615 152.25 127.231C149.917 137.846 159.25 143.154 158.667 153.179C158.083 163.205 155.75 172.641 161 186.795C163.858 194.5 160.05 199.673 159.5 204.5C159.071 208.261 161.041 211.964 167.5 217M174 67C175.75 74.0769 180.2 90.7897 183 104M185 149C192.583 159.026 209.417 172.641 210 179.718" stroke="#353535" stroke-width="0.5"/>
<path d="M110.5 130.5C110.5 133.475 111 143.235 111 148.471C111 155.017 98.697 146.091 88.7374 162.157C78.7778 178.223 77.0202 167.512 71.1616 182.983C65.303 198.455 55.9293 195.479 53 205" stroke="#353535" stroke-width="0.5"/>
<path d="M36 193.5C37 190.5 41.1 183.3 49.5 178.5C44.8333 182.5 36.7 192.6 41.5 201C46.3 209.4 39.8333 213.833 36 215C40.3333 215.833 49.8 214.6 53 205" stroke="#353535" stroke-width="0.5"/>
<path d="M167.5 217C168 213.833 162.3 211.2 167.5 208C165.5 211.167 176.5 213 176.5 238C190 231 181.2 201 190 197C198.8 193 186.666 163.667 184.5 146.5" stroke="#353535" stroke-width="0.5"/>
<path d="M183 104C186 120.5 185.6 131.5 188 139.5C190.4 147.5 192 154.833 192.5 157.5" stroke="#353535" stroke-width="0.5"/>
</svg>
