<svg width="206" height="226" viewBox="0 0 206 226" fill="none" xmlns="http://www.w3.org/2000/svg">
<path d="M92.5 1.42825C96.5188 0.528729 98.1667 1.19963 99 2.03296C119 0.0330153 124 10.5329 126 12.5329C128 14.5329 132.5 22.0329 135.5 25.5329C138.5 29.0329 143.5 43.0329 141.5 53.5329C139.5 64.0329 139 65.4282 140.5 73.4282C142 75.4282 142.634 78.598 143 80.4282C145.216 91.526 143.074 104.382 141.5 109.533C140.833 109.033 138.8 108.333 136 109.533C128.006 112.198 126.467 112.577 124 111.928C123.227 111.725 122.813 111.391 121.5 111.033C117.1 109.833 115.333 112.866 115 114.533C114.419 113.178 115.107 110.886 116.5 108.428C117.986 105.805 120.226 102.993 121 100.928C119.8 99.3283 120 90.9283 121.5 86.4283L123 83.9287C122 81.4287 125 71.9282 126 67.0329C126.7 63.6037 125.5 56.4283 125.5 51.4283C125.5 47.4283 124.833 48.2616 124.5 44.9283C123 43.7616 114.187 39.3507 109.5 34.4287C99.5 23.9283 99 20.4283 97.5 17.0329C92.5 22.5329 81.4 34.7329 77 39.5329C71.5 45.5329 74 54.9283 72 60.5329C71.3016 62.49 71.4247 64.5092 71.5 66.4283C71.6276 69.681 72.1855 72.6461 72.5 74.5329C72.9 76.9329 76 85.8662 77.5 90.0329L81.5 94.0329C82.5 95.0329 84 100.429 84 102.929C84 104.929 82.6667 109.262 82 110.929L77.5 111.533C77.5 112.333 78.3333 113.262 79 113.929C75.5 113.929 72.0615 113.491 64 116.533C61.5693 117.45 58 118.929 57 117.929C56 116.057 55 115.429 55 115.429V109.533C55 108.033 49.5 102.533 48.5 101.033C47.5 99.5329 47.5 96.0329 47 93.0329C46.5 90.0329 48 83.5329 51.5 79.0329C55 74.5329 56.5 70.0329 56.5 68.0329C56.5 66.0329 55 60.5329 61 38.5329C67 16.5329 74 12.4283 75.5 10.5329C78.0017 7.37193 88.5 2.32357 92.5 1.42825Z" fill="#5C5C5C"/>
<path d="M14.4999 142.614C11.1735 141.657 4.8801 139.762 4.49994 138.614C4.02473 137.179 2.96268 132.614 8.18996 132.614C13.4172 132.614 14.8429 135.005 18.6445 135.005C21.6859 135.005 28.1487 135.005 30.9999 135.005" stroke="#353535" stroke-width="0.5"/>
<path d="M9 132.614C11.8333 131.614 18.5 128.114 22.5 126.114C24.5 125.114 33.5 129.114 36 129.614C38.5 130.114 48 134.114 50.5 136.114C53 138.114 59 141.114 61.5 143.114C64 145.114 104.5 156.032 121 157.114C138.491 158.26 167.5 158.032 173.5 159.532M28.5 127.116C35 120.035 36.5 116.032 54 112.032" stroke="#353535" stroke-width="0.5"/>
<path d="M14.9999 151.532C12.6666 150.032 7.59991 148.014 7.99991 145.614C8.39991 143.214 10.1666 141.532 10.4999 141.532" stroke="#353535" stroke-width="0.5"/>
<path d="M11.1879 156.532C9.52122 155.366 6.68789 152.032 8.68789 150.032C9.48789 149.232 10.3546 149.032 10.6879 149.032" stroke="#353535" stroke-width="0.5"/>
<path d="M9.49993 155.033C8.38727 157.521 8.6481 159.959 21.9999 165.533C28.199 168.021 47.162 165.533 50.4999 165.533C53.8379 165.533 117.571 189.213 141.891 191.701C166.21 194.189 194.344 195.682 198.159 193.691C201.974 191.701 201.497 191.203 202.451 189.213C203.405 187.222 206.266 179.26 204.358 175.279C202.451 171.298 198.636 159.852 188.145 145.918C177.655 131.984 158.609 100.928 143 104.428" stroke="#353535" stroke-width="0.5"/>
<path d="M22 194.851C26 194.403 30.5 192.656 37 194.851M145 192.032C141.5 193.974 138.7 197.897 137.5 199.331C136 201.123 117.5 201.571 99 202.019C86.8605 202.313 60.2078 197.758 37 194.851M48.5 165.532C46.5 171.475 39 189.796 37 194.851" stroke="#353535" stroke-width="0.5"/>
<path d="M16.1531 164.032C14.5995 167.444 6.72336 184.592 5.40308 193.049C4.0828 201.506 -2.9587 216.003 4.08278 220.03C11.1243 224.057 10.6842 221.641 21.6865 224.057C32.6888 226.473 88.6814 223.806 99.5829 222.446C109.265 221.238 126.429 220.03 137.871 220.03C149.313 220.03 168.237 222.446 169.558 220.03C170.878 217.614 169.558 217.211 170.438 216.003C171.318 214.795 174.839 211.17 174.399 208.754C173.959 206.338 177.919 205.533 177.479 203.116C177.039 200.7 175.719 199.089 176.599 198.284C177.479 197.479 181 197.076 181 194.66" stroke="#353535" stroke-width="0.5"/>
<path d="M141.5 109.614C143.5 106.614 145.5 82.6138 141.5 75.1138C137.5 67.6138 141.5 60.6138 141.5 46.1138C141.5 31.6138 134 22.6138 124.5 10.6138C116.9 1.01377 104.333 0.947093 99 2.11375C98.5 0.613755 94 -0.486246 80 7.11375C62.5 16.6138 56.5 55.1138 56.5 66.1138C56.5 77.1138 47 81.1138 47 91.6138C47 102.114 49 101.532 53 106.032C57 110.532 54 109.532 55 115.532C58.5 117.032 55 120.114 62.5 117.114C68.5 114.714 77.5 113.366 79 114.032" stroke="#353535" stroke-width="0.5"/>
<path d="M97.5 16.6138C94.6667 19.9471 87.2 28.0138 80 35.6138C71 45.1138 74.5 51.6138 72 61.1138C69.5 70.6138 76.5 84.4282 78.5 93.4282C80.5 102.428 73 107.928 79 113.928" stroke="#353535" stroke-width="0.5"/>
<path d="M97.5 16.9282C98.8333 21.5949 105.3 34.5282 124.5 44.9282C126.167 49.7616 126 60.4138 126 65.6138C126 72.1138 121 79.4282 123.5 86.4282C126 93.4282 120 103.114 117 107.614C114.6 111.214 114.667 113.78 115 114.614" stroke="#353535" stroke-width="0.5"/>
<path d="M77.5 90.1138C81 93.9471 90 101.514 98 101.114C108 100.614 107 104.428 123 84.4282" stroke="#353535" stroke-width="0.5"/>
<path d="M52.5 165.928C50.2697 176.109 54.9999 188.18 55 197.032" stroke="#353535" stroke-width="0.5"/>
<path d="M115 114.533C115.167 112.533 117.3 109.214 122.5 111.614C129 114.614 137.5 107.032 141.5 109.532" stroke="#353535" stroke-width="0.5"/>
<path d="M121.5 86.1138C120.667 89.9471 119 98.1282 121 100.928" stroke="#353535" stroke-width="0.5"/>
<path d="M81.5 112.928C86 100.928 83 98.9282 82 94.4282" stroke="#353535" stroke-width="0.5"/>
<path d="M77.5001 111.428L81.9876 111.032" stroke="#353535" stroke-width="0.5"/>
<path d="M17.5 135.114C19.3333 134.28 23.1 132.614 23.5 132.614C23.9 132.614 26.3333 133.28 27.5 133.614" stroke="#353535" stroke-width="0.5"/>
<path d="M161 158.032C157.48 156.186 152.652 152.002 151.5 150.032L153 158.032" stroke="#353535" stroke-width="0.5"/>
<path d="M75 113.928C74.6667 118.095 77.3999 126.132 90.9999 126.532C108 127.032 113 129.032 120.5 123.532C126.5 119.132 129.333 114.032 130 112.032" stroke="#353535" stroke-width="0.5"/>
<path d="M132.5 111.032C131.333 113.532 136.2 126.032 141 132.032C145.8 138.032 148 144.595 151.5 149.928" stroke="#353535" stroke-width="0.5"/>
<path d="M70.5 114.928C71 117.262 69.2 129.028 68 131.428C66.8 133.828 64.5 137.699 61 143.032" stroke="#353535" stroke-width="0.5"/>
<path d="M93.3318 162.36C92.8527 164.519 92.67 166.701 92.1414 168.851" stroke="#F09756"/>
<path d="M93.191 162.933C94.1993 163.148 95.4476 163.139 96.4826 163.135" stroke="#F09756"/>
<path d="M92.6157 165.274L95.0982 165.884" stroke="#F09756"/>
<path d="M98.3547 163.696C100.108 164.127 101.885 164.463 103.63 164.891" stroke="#F09756"/>
<path d="M100.839 164.712C100.573 165.793 100.507 166.884 100.245 167.952C100.12 168.459 100.081 169.173 99.8224 169.625C99.5639 170.077 98.6716 169.815 98.2812 169.854C97.4101 169.942 97.2535 168.589 97.1078 167.946" stroke="#F09756"/>
<path d="M104.937 166.243C104.393 166.701 104.598 168.353 104.558 168.973C104.513 169.686 104.291 170.4 104.291 171.112C104.292 171.568 104.331 172.002 104.222 172.445" stroke="#F09756"/>
<path d="M104.605 166.768C105.363 166.955 105.96 167.116 106.722 167.036C107.172 166.988 107.637 167.034 108.088 167.017" stroke="#F09756"/>
<path d="M104.689 169.725C105.166 169.842 105.643 169.96 106.121 170.077C106.456 170.16 106.739 170.027 107.027 170.097" stroke="#F09756"/>
<path d="M87.5671 161.146C87.3461 162.045 87.0621 162.926 86.8408 163.827C86.6764 164.495 86.1953 165.609 86.4737 166.296C86.646 166.721 86.8628 167.2 87.3332 167.358C87.7419 167.495 88.1713 167.615 88.5933 167.506C88.9185 167.422 89.2013 166.809 89.3343 166.519C89.5387 166.074 89.7701 165.631 89.8876 165.153C90.1687 164.009 90.4498 162.865 90.731 161.721" stroke="#F09756"/>
<path d="M28.468 207.701C27.9284 207.76 27.5601 207.115 27.0123 207.246C26.5509 207.358 26.0773 207.443 25.6231 207.581C24.4759 207.928 23.9915 210.326 23.9429 211.606C23.891 212.972 24.825 214.692 26.0093 214.706C26.9103 214.718 27.7578 214.509 28.6305 214.299" stroke="#BE0B61"/>
<path d="M31.4716 206.928C31.6341 208.111 31.6812 210.115 31.302 211.238C30.9992 212.134 30.4179 213.414 30.6474 214.368" stroke="#BE0B61"/>
<path d="M34.2814 207.312C34.444 207.987 34.263 208.487 34.1441 209.155C33.9975 209.978 34.1403 210.78 33.9538 211.614C33.7826 212.381 33.5309 213.168 33.4643 213.945" stroke="#BE0B61"/>
<path d="M34.0842 208.164C35.8352 209.612 35.7607 212.402 37.1875 213.954C37.752 214.568 38.2046 211.626 38.3011 211.06C38.4321 210.291 38.9303 208.542 39.4921 208.069" stroke="#BE0B61"/>
<path d="M41.6221 207.608C41.7213 208.394 41.5038 209.232 41.5586 210.037C41.6248 211.008 41.4619 212.046 41.4744 213.029C41.4862 213.962 41.1196 214.415 42.4108 214.413C43.3634 214.411 44.376 214.789 45.308 214.565" stroke="#BE0B61"/>
<path d="M41.9556 211.316C42.5283 211.178 43.1526 210.889 43.7125 211.094" stroke="#BE0B61"/>
<path d="M41.668 207.798C42.0542 208.866 44.81 208.252 45.6006 208.259" stroke="#BE0B61"/>
<path d="M55.5798 216.579C55.4685 215.418 55.7871 213.971 55.9417 212.809C56.0561 211.948 56.2158 211.08 56.6311 210.302C57.2772 209.092 58.8418 206.865 59.3452 209.411C59.8344 211.885 60.5021 214.254 60.9869 216.706" stroke="#BE0B61"/>
<path d="M56.01 212.707C56.7229 212.566 57.3099 212.774 58.0042 212.711C58.3847 212.676 59.3573 212.619 59.6148 212.791" stroke="#BE0B61"/>
<path d="M70.5798 209.459C70.8748 210.951 70.9731 212.457 71.2688 213.952C71.407 214.651 71.1922 215.387 71.294 216.096C71.4258 217.014 71.7509 216.803 72.5541 216.644C73.2717 216.502 73.9893 216.36 74.7069 216.218" stroke="#BE0B61"/>
<path d="M71.3765 213.488L73.103 213.146" stroke="#BE0B61"/>
<path d="M70.4639 209.881C71.2525 209.814 72.149 210.108 72.9134 210.172C73.4433 210.216 74.122 209.955 74.6442 209.852" stroke="#BE0B61"/>
<path d="M83.7966 210.171C83.183 211.104 83.6945 212.612 83.4528 213.675C83.2082 214.751 83.3296 215.85 82.9864 216.913" stroke="#BE0B61"/>
<path d="M83.7158 209.208C83.9565 210.611 85.0374 211.822 85.5448 213.157C85.9578 214.244 86.4088 215.224 86.5404 216.387" stroke="#BE0B61"/>
<path d="M83.5125 215.05L85.6499 214.808" stroke="#BE0B61"/>
<path d="M87.0686 209.742C87.4802 209.846 87.7985 213.679 88.0972 214.341C88.6966 215.67 89.0414 216.104 90.5134 215.937C91.3187 215.846 90.671 210.867 90.5816 210.076" stroke="#BE0B61"/>
<path d="M93.1865 210.712C93.4913 212.539 93.7522 214.388 94.5222 216.048" stroke="#BE0B61"/>
<path d="M92.0662 211.026C92.578 210.916 93.0461 210.521 93.5544 210.35C94.1228 210.158 94.8743 210.118 95.4761 210.091C96.7196 210.037 96.7456 211.754 96.8171 212.602C96.86 213.11 96.2225 214.457 95.7824 214.771C95.1763 215.204 94.2083 215.356 93.4802 215.439" stroke="#BE0B61"/>
<path d="M98.8102 210.059C98.9842 211.596 99.3657 213.238 99.1611 214.775" stroke="#BE0B61"/>
<path d="M104.474 210.014C103.043 210.176 101.688 210.772 101.408 212.373C101.095 214.159 101.715 214.782 103.45 214.886C103.839 214.909 105.025 215.171 105.342 214.814C105.745 214.359 105.297 213.631 105.465 213.113C105.629 212.606 105.419 211.902 105.36 211.377C105.271 210.593 105.19 210.299 104.334 210.396" stroke="#BE0B61"/>
<path d="M108 210.318C108.057 210.822 108.199 211.297 108.382 211.771C108.58 212.285 108.69 212.986 108.979 213.438C109.343 214.008 109.656 214.585 110.042 215.142C110.181 215.342 110.314 215.54 110.451 215.741C110.71 216.123 110.68 214.642 110.689 214.527C110.761 213.605 110.794 212.563 111.091 211.678C111.251 211.204 111.413 210.704 111.479 210.21" stroke="#BE0B61"/>
<path d="M113.352 209.928C113.52 211.41 113.33 212.882 113.497 214.357C113.554 214.864 113.612 215.371 113.669 215.877" stroke="#BE0B61"/>
<path d="M117.744 210.048C117.614 210.319 117.097 210.264 116.829 210.294C116.363 210.347 115.973 210.76 115.815 211.193C115.698 211.513 115.777 212.132 116.058 212.361C116.404 212.643 116.821 212.531 117.196 212.655C117.636 212.802 118.075 213.069 118.466 213.315C118.671 213.444 119.167 213.644 119.244 213.9C119.369 214.312 118.75 214.555 118.499 214.697C118.286 214.818 118.13 215.003 117.885 215.075C117.547 215.175 117.119 215.205 116.768 215.209C116.211 215.217 115.695 214.762 115.446 214.298" stroke="#BE0B61"/>
<path d="M121.174 210.201C121.239 210.777 121.316 211.352 121.354 211.93C121.394 212.558 121.44 213.183 121.511 213.809C121.536 214.026 121.546 214.187 121.714 214.34C122.18 214.764 123.176 214.673 123.633 214.269C124.608 213.409 124.606 212.196 124.468 210.976C124.389 210.277 124.173 209.631 124.095 208.944" stroke="#BE0B61"/>
<path d="M127.682 208.928C127.574 209.805 127.595 210.677 127.694 211.555C127.756 212.099 127.849 212.643 127.793 213.191C127.711 213.98 127.569 214.99 127.813 215.753" stroke="#BE0B61"/>
<path d="M127.824 209.553C127.885 209.789 128.024 209.997 128.15 210.201C128.434 210.659 128.66 211.143 128.909 211.62C129.187 212.154 129.458 212.661 129.527 213.272C129.586 213.792 129.855 214.276 129.914 214.803" stroke="#BE0B61"/>
<path d="M128.042 212.811C128.116 213.065 129.415 212.767 129.645 212.741" stroke="#BE0B61"/>
<path d="M132 208.318C132.213 210.199 132.701 211.998 132.915 213.879C132.96 214.284 133.006 214.544 133.439 214.386C134.318 214.066 135.185 213.832 136.084 213.556" stroke="#BE0B61"/>
<path d="M46.5959 214.932C46.9561 214.394 46.8495 213.691 46.8592 213.079C46.8736 212.173 47.0029 211.374 47.3429 210.54C47.5946 209.923 47.8132 209.289 48.0152 208.662C48.1963 208.101 48.438 208.635 48.5979 208.969C48.8683 209.536 49.0929 210.112 49.3145 210.694C49.3416 210.766 49.5803 211.872 49.7543 211.69C50.0864 211.342 50.2624 210.849 50.4646 210.423C50.6866 209.955 51.158 209.608 51.4448 209.18C51.4653 209.149 51.7198 208.738 51.7231 208.744C51.8439 208.943 51.8512 209.321 51.8818 209.546C51.9368 209.951 51.9485 210.36 51.9822 210.766C52.1174 212.402 51.7042 213.996 51.7007 215.612" stroke="#BE0B61"/>
</svg>
