<svg width="38" height="40" viewBox="0 0 43 50" fill="none" xmlns="http://www.w3.org/2000/svg">
<path d="M10.9053 37.9228C8.0523 37.6441 9.67214 34.84 11.5216 29.9076L15.2205 30.5242C14.3983 32.9904 12.3849 37.9228 10.9053 37.9228Z" fill="#536AE8"/>
<path d="M5.76631 41.4965C6.39217 38.2874 8.0538 37.0611 9.0818 36.9579C9.50385 37.8243 11.1207 38.1262 11.8268 37.9873C12.4808 38.6498 13.6225 40.8412 11.1492 44.8883C8.676 48.9356 3.92372 49.178 1.85742 48.7933C4.16596 47.7457 4.9833 45.5078 5.76631 41.4965Z" stroke="#838383" stroke-width="0.75"/>
<path d="M16.3686 15.0084C14.535 18.6708 10.8313 31.2301 9.20898 37.052C9.69691 37.9084 10.9871 37.9721 11.6019 37.8511C14.3222 33.8239 19.8438 21.309 21.3343 17.5237C22.8249 13.7384 25.8869 1.70731 24.4766 1.03231C23.0664 0.357327 18.6614 10.4303 16.3686 15.0084Z" stroke="#838383" stroke-width="0.75" stroke-linejoin="bevel"/>
<path d="M26.5811 37.1432V34.8031L40.4841 29.3302L26.5811 23.8574V21.5173L42.9996 28.0847V30.5758L26.5811 37.1432Z" fill="#B8B8B8"/>
</svg>
