<svg width="292" height="30" viewBox="0 0 292 30" fill="none" xmlns="http://www.w3.org/2000/svg">
<path d="M16.4185 23.3937L0 16.8263V14.3352L16.4185 7.76776V10.1079L0.981336 16.1846V14.9768L16.4185 21.0535V23.3937Z" fill="#B8B8B8"/>
<path d="M23.3711 28.791V2.37039H26.1641V26.3754H40.9597V28.791H23.3711ZM57.4487 28.791V24.4127L57.3354 23.6956V16.3733C57.3354 14.6874 56.8574 13.3916 55.9012 12.4857C54.9702 11.5799 53.5737 11.1269 51.7116 11.1269C50.4283 11.1269 49.208 11.3408 48.0505 11.7686C46.893 12.1963 45.9117 12.7625 45.1065 13.467L43.8987 11.4666C44.9052 10.6111 46.113 9.95688 47.5221 9.50395C48.9312 9.02584 50.4158 8.78682 51.9758 8.78682C54.5424 8.78682 56.5177 9.42846 57.9016 10.7118C59.3107 11.9699 60.0152 13.8948 60.0152 16.4865V28.791H57.4487ZM50.617 28.9797C49.1325 28.9797 47.8366 28.7407 46.7294 28.2626C45.6475 27.7594 44.8171 27.08 44.2384 26.2244C43.6596 25.3438 43.3703 24.3372 43.3703 23.2049C43.3703 22.1733 43.6093 21.2422 44.0874 20.4119C44.5907 19.5563 45.3959 18.877 46.503 18.3737C47.6353 17.8453 49.145 17.5811 51.0322 17.5811H57.8638V19.5815H51.1077C49.1954 19.5815 47.8618 19.9212 47.1069 20.6006C46.3772 21.28 46.0123 22.1229 46.0123 23.1294C46.0123 24.2617 46.4527 25.1676 47.3333 25.847C48.2141 26.5264 49.447 26.8661 51.0322 26.8661C52.542 26.8661 53.8379 26.5264 54.9198 25.847C56.027 25.1424 56.8322 24.136 57.3354 22.8275L57.9393 24.6769C57.4361 25.9854 56.5554 27.0296 55.2973 27.8097C54.0643 28.5897 52.5042 28.9797 50.617 28.9797ZM67.2939 28.791V8.97554H69.8606V14.3729L69.5964 13.4293C70.1502 11.9196 71.0807 10.7747 72.3894 9.99462C73.6981 9.18945 75.3211 8.78682 77.2583 8.78682V11.3911C77.1575 11.3911 77.0573 11.3911 76.9564 11.3911C76.8555 11.366 76.7553 11.3534 76.6544 11.3534C74.5662 11.3534 72.9302 11.995 71.7478 13.2783C70.5653 14.5364 69.9738 16.3356 69.9738 18.6757V28.791H67.2939ZM93.0915 28.791V24.4127L92.9783 23.6956V16.3733C92.9783 14.6874 92.4999 13.3916 91.544 12.4857C90.6127 11.5799 89.2162 11.1269 87.3544 11.1269C86.0711 11.1269 84.851 11.3408 83.6933 11.7686C82.5356 12.1963 81.5543 12.7625 80.7493 13.467L79.5415 11.4666C80.5482 10.6111 81.756 9.95688 83.1649 9.50395C84.5738 9.02584 86.0588 8.78682 87.6186 8.78682C90.1852 8.78682 92.1602 9.42846 93.5444 10.7118C94.9533 11.9699 95.6581 13.8948 95.6581 16.4865V28.791H93.0915ZM86.2599 28.9797C84.7755 28.9797 83.4792 28.7407 82.3723 28.2626C81.2901 27.7594 80.4597 27.08 79.8812 26.2244C79.3027 25.3438 79.0131 24.3372 79.0131 23.2049C79.0131 22.1733 79.2519 21.2422 79.7302 20.4119C80.2332 19.5563 81.0389 18.877 82.1458 18.3737C83.2781 17.8453 84.7879 17.5811 86.675 17.5811H93.5067V19.5815H86.7505C84.838 19.5815 83.5046 19.9212 82.7497 20.6006C82.0202 21.28 81.6551 22.1229 81.6551 23.1294C81.6551 24.2617 82.0957 25.1676 82.9762 25.847C83.8566 26.5264 85.0898 26.8661 86.675 26.8661C88.1848 26.8661 89.4804 26.5264 90.5627 25.847C91.6696 25.1424 92.4752 24.136 92.9783 22.8275L93.5821 24.6769C93.0791 25.9854 92.198 27.0296 90.9401 27.8097C89.7069 28.5897 88.1471 28.9797 86.2599 28.9797ZM115.09 29.0175C113.077 29.0175 111.215 28.6903 109.504 28.0361C107.818 27.3567 106.346 26.4131 105.088 25.2053C103.855 23.9975 102.886 22.5758 102.182 20.9403C101.502 19.3048 101.162 17.5182 101.162 15.5807C101.162 13.6432 101.502 11.8566 102.182 10.2211C102.886 8.58554 103.868 7.16384 105.126 5.95604C106.384 4.74825 107.856 3.81721 109.542 3.16301C111.253 2.48362 113.115 2.14393 115.128 2.14393C117.141 2.14393 118.977 2.45844 120.638 3.08752C122.324 3.71661 123.759 4.67276 124.941 5.95604L123.205 7.73C122.098 6.62287 120.878 5.83025 119.544 5.35214C118.21 4.87403 116.776 4.63501 115.241 4.63501C113.606 4.63501 112.096 4.91178 110.712 5.46538C109.353 5.99379 108.158 6.76122 107.126 7.76774C106.12 8.74908 105.327 9.90657 104.748 11.2402C104.195 12.5486 103.918 13.9955 103.918 15.5807C103.918 17.1407 104.195 18.5876 104.748 19.9212C105.327 21.2548 106.12 22.4249 107.126 23.4314C108.158 24.4127 109.353 25.1801 110.712 25.7337C112.096 26.2622 113.593 26.5264 115.203 26.5264C116.713 26.5264 118.135 26.2999 119.468 25.847C120.827 25.3941 122.072 24.6266 123.205 23.5446L124.79 25.6583C123.532 26.7654 122.06 27.6084 120.374 28.1871C118.689 28.7407 116.927 29.0175 115.09 29.0175ZM122.11 25.3186V15.5807H124.79V25.6583L122.11 25.3186ZM140.206 28.9797C138.294 28.9797 136.57 28.552 135.035 27.6964C133.525 26.8158 132.331 25.6205 131.449 24.1108C130.569 22.5758 130.128 20.8271 130.128 18.8644C130.128 16.8765 130.569 15.1278 131.449 13.618C132.331 12.1083 133.525 10.9257 135.035 10.0701C136.545 9.21456 138.269 8.78682 140.206 8.78682C142.169 8.78682 143.905 9.21456 145.415 10.0701C146.95 10.9257 148.145 12.1083 149 13.618C149.881 15.1278 150.321 16.8765 150.321 18.8644C150.321 20.8271 149.881 22.5758 149 24.1108C148.145 25.6205 146.95 26.8158 145.415 27.6964C143.88 28.552 142.144 28.9797 140.206 28.9797ZM140.206 26.6019C141.64 26.6019 142.911 26.2873 144.018 25.6583C145.126 25.0041 145.994 24.0982 146.622 22.9407C147.277 21.7581 147.604 20.3993 147.604 18.8644C147.604 17.3043 147.277 15.9456 146.622 14.7881C145.994 13.6306 145.126 12.7374 144.018 12.1083C142.911 11.4541 141.653 11.1269 140.244 11.1269C138.835 11.1269 137.577 11.4541 136.469 12.1083C135.362 12.7374 134.482 13.6306 133.827 14.7881C133.173 15.9456 132.846 17.3043 132.846 18.8644C132.846 20.3993 133.173 21.7581 133.827 22.9407C134.482 24.0982 135.362 25.0041 136.469 25.6583C137.577 26.2873 138.822 26.6019 140.206 26.6019ZM165.908 8.78682C167.518 8.78682 168.928 9.10133 170.135 9.73041C171.368 10.3343 172.324 11.2653 173.004 12.5234C173.708 13.7815 174.061 15.3668 174.061 17.2792V28.791H171.381V17.5434C171.381 15.4549 170.852 13.8822 169.796 12.8254C168.763 11.7434 167.305 11.2024 165.417 11.2024C164.008 11.2024 162.775 11.4918 161.718 12.0705C160.686 12.6241 159.881 13.4419 159.303 14.5239C158.749 15.5807 158.472 16.864 158.472 18.3737V28.791H155.793V8.97554H158.359V14.4106L157.944 13.3916C158.573 11.9573 159.579 10.8375 160.964 10.0324C162.347 9.202 163.995 8.78682 165.908 8.78682ZM189.527 28.9797C187.565 28.9797 185.803 28.552 184.243 27.6964C182.708 26.8158 181.5 25.6205 180.62 24.1108C179.739 22.5758 179.299 20.8271 179.299 18.8644C179.299 16.8765 179.739 15.1278 180.62 13.618C181.5 12.1083 182.708 10.9257 184.243 10.0701C185.803 9.21456 187.565 8.78682 189.527 8.78682C191.213 8.78682 192.736 9.11396 194.094 9.76816C195.453 10.4224 196.522 11.4037 197.303 12.7122L195.302 14.0709C194.623 13.0644 193.779 12.3222 192.773 11.8441C191.767 11.366 190.672 11.1269 189.49 11.1269C188.08 11.1269 186.81 11.4541 185.677 12.1083C184.545 12.7374 183.652 13.6306 182.998 14.7881C182.343 15.9456 182.016 17.3043 182.016 18.8644C182.016 20.4244 182.343 21.7832 182.998 22.9407C183.652 24.0982 184.545 25.0041 185.677 25.6583C186.81 26.2873 188.08 26.6019 189.49 26.6019C190.672 26.6019 191.767 26.3628 192.773 25.8847C193.779 25.4066 194.623 24.6769 195.302 23.6956L197.303 25.0544C196.522 26.3376 195.453 27.319 194.094 27.9984C192.736 28.6526 191.213 28.9797 189.527 28.9797ZM214.984 28.791V24.4127L214.871 23.6956V16.3733C214.871 14.6874 214.393 13.3916 213.437 12.4857C212.506 11.5799 211.109 11.1269 209.247 11.1269C207.964 11.1269 206.744 11.3408 205.586 11.7686C204.429 12.1963 203.447 12.7625 202.642 13.467L201.434 11.4666C202.441 10.6111 203.649 9.95688 205.058 9.50395C206.467 9.02584 207.952 8.78682 209.512 8.78682C212.078 8.78682 214.053 9.42846 215.437 10.7118C216.846 11.9699 217.551 13.8948 217.551 16.4865V28.791H214.984ZM208.153 28.9797C206.668 28.9797 205.372 28.7407 204.265 28.2626C203.183 27.7594 202.353 27.08 201.774 26.2244C201.196 25.3438 200.906 24.3372 200.906 23.2049C200.906 22.1733 201.145 21.2422 201.623 20.4119C202.126 19.5563 202.932 18.877 204.039 18.3737C205.171 17.8453 206.681 17.5811 208.568 17.5811H215.4V19.5815H208.644C206.731 19.5815 205.398 19.9212 204.643 20.6006C203.913 21.28 203.548 22.1229 203.548 23.1294C203.548 24.2617 203.989 25.1676 204.869 25.847C205.75 26.5264 206.983 26.8661 208.568 26.8661C210.078 26.8661 211.373 26.5264 212.456 25.847C213.563 25.1424 214.368 24.136 214.871 22.8275L215.475 24.6769C214.972 25.9854 214.091 27.0296 212.833 27.8097C211.6 28.5897 210.04 28.9797 208.153 28.9797ZM224.829 28.791V0.785156H227.509V28.791H224.829ZM240.061 28.791L231.267 8.97554H234.06L242.137 27.3567H240.816L249.007 8.97554H251.649L242.817 28.791H240.061ZM263.287 28.9797C261.223 28.9797 259.412 28.552 257.852 27.6964C256.291 26.8158 255.071 25.6205 254.191 24.1108C253.309 22.5758 252.87 20.8271 252.87 18.8644C252.87 16.9017 253.285 15.1655 254.115 13.6558C254.97 12.146 256.128 10.9634 257.587 10.1079C259.072 9.22719 260.733 8.78682 262.57 8.78682C264.431 8.78682 266.08 9.21456 267.514 10.0701C268.973 10.9005 270.118 12.0831 270.949 13.618C271.779 15.1278 272.194 16.8765 272.194 18.8644C272.194 18.9902 272.181 19.1286 272.157 19.2796C272.157 19.4054 272.157 19.5438 272.157 19.6948H254.908V17.6943H270.722L269.665 18.487C269.665 17.0527 269.35 15.782 268.722 14.6748C268.118 13.5425 267.288 12.6619 266.231 12.0328C265.174 11.4037 263.953 11.0892 262.57 11.0892C261.211 11.0892 259.99 11.4037 258.909 12.0328C257.826 12.6619 256.984 13.5425 256.38 14.6748C255.776 15.8072 255.474 17.103 255.474 18.5624V18.9776C255.474 20.4874 255.8 21.821 256.455 22.9785C257.135 24.1108 258.065 25.0041 259.248 25.6583C260.456 26.2873 261.827 26.6019 263.362 26.6019C264.57 26.6019 265.689 26.3879 266.721 25.9602C267.778 25.5325 268.684 24.8782 269.439 23.9975L270.949 25.7337C270.068 26.7906 268.961 27.5957 267.627 28.1493C266.319 28.7029 264.872 28.9797 263.287 28.9797ZM282.97 28.9797C281.335 28.9797 279.788 28.7532 278.328 28.3003C276.868 27.8222 275.724 27.2309 274.893 26.5264L276.101 24.4127C276.906 25.0166 277.938 25.545 279.196 25.998C280.454 26.4257 281.775 26.6396 283.159 26.6396C285.046 26.6396 286.405 26.3502 287.236 25.7715C288.066 25.1676 288.481 24.375 288.481 23.3936C288.481 22.6639 288.242 22.0978 287.764 21.6952C287.311 21.2674 286.707 20.9529 285.952 20.7516C285.197 20.5251 284.355 20.3364 283.423 20.1854C282.492 20.0344 281.562 19.8583 280.63 19.657C279.725 19.4557 278.894 19.1663 278.139 18.7889C277.384 18.3863 276.768 17.8453 276.29 17.1659C275.837 16.4865 275.61 15.5807 275.61 14.4484C275.61 13.3664 275.912 12.3977 276.516 11.5421C277.12 10.6866 278.001 10.0198 279.158 9.5417C280.341 9.03847 281.775 8.78682 283.461 8.78682C284.744 8.78682 286.028 8.96298 287.311 9.31523C288.594 9.64237 289.651 10.0827 290.481 10.6363L289.311 12.7877C288.431 12.1838 287.487 11.756 286.481 11.5044C285.474 11.2276 284.468 11.0892 283.461 11.0892C281.675 11.0892 280.354 11.4037 279.498 12.0328C278.668 12.6367 278.253 13.4167 278.253 14.3729C278.253 15.1278 278.479 15.7191 278.932 16.1468C279.41 16.5746 280.026 16.9143 280.781 17.1659C281.562 17.3924 282.404 17.5811 283.31 17.7321C284.241 17.8831 285.16 18.0718 286.065 18.2982C286.997 18.4995 287.839 18.7889 288.594 19.1663C289.375 19.5186 289.991 20.0344 290.444 20.7138C290.922 21.368 291.161 22.2361 291.161 23.3181C291.161 24.4756 290.834 25.4821 290.18 26.3376C289.55 27.168 288.62 27.8222 287.386 28.3003C286.179 28.7532 284.707 28.9797 282.97 28.9797Z" fill="#44C9B0"/>
</svg>
