<svg width="189" height="250" viewBox="0 0 189 250" fill="none" xmlns="http://www.w3.org/2000/svg">
<path d="M56.5 205.5L52.5 203L36.5 207.5V225L39 227L56.5 205.5Z" fill="#6698C6"/>
<path d="M54.5 222L56.5 205.5L39 210V227L54.5 222Z" fill="#7DBAF3"/>
<path d="M75.5 7.12585C63.066 0.909211 47.5 0.625732 37 1.62573C26 4.62582 20 15.1261 17.5 20.6261C15 26.1261 8.5 36.1261 9 53.6261C9.4 67.6261 11 80.7924 12 85.6257L18 80.6261C17.6667 79.4594 16.5 75.4261 14.5 68.6261C12.5 61.8261 13.3333 53.7927 14 50.6261C16 54.1261 19 56.1261 30 58.1261C41 60.1261 50 57.6261 53.5 56.6261C71.5 58.1257 77.5 65.4594 79 69.6261C79 68.1261 85 55.6261 90 55.1261C95 54.6261 96.5 59.1257 96 63.6257C95.5 68.1257 92 76.6257 90.5 79.1257C89 81.6257 89.5 85.1261 87.5 86.6261C85.9 87.8261 85 86.1261 84.5 85.6261C83.5 87.6261 85.7473 88.0821 85 93.1261C83 106.626 77.5 118.126 74 127.626C69.7632 139.126 77 148.626 80.5 151.626C77.5 147.126 100.5 123.626 102.5 111.126C103.202 106.74 104 101.626 103 97.1261L102.251 92.2603C102.209 91.7524 102.145 91.2406 102 90.6257C101.511 88.5533 103 85.1257 103 85.1257C103.513 85.6272 105.5 87.1261 107 88.6261L107.019 88.6454C107.915 89.5414 109.011 90.6371 112 93.1261C114.009 94.7991 116.832 95.8586 118.5 97.1261C109 88.1261 104 57.1261 99.5 39.6261C95.9266 25.7294 90.1073 18.3998 82.5 12.1261C80.5275 10.4993 78.5 8.62577 75.5 7.12585Z" fill="#5C5C5C"/>
<path d="M13.9999 49.6257C10.9999 59.6257 15.4999 73.6257 17.4999 79.1257C19.4999 84.6257 18.4999 91.6257 19.9999 97.1257C21.4999 102.626 34.9999 112.626 38.4999 117.126C41.9999 121.626 53.4999 132.126 69.9999 113.626C83.1999 98.8257 84.8333 87.7924 83.9999 84.1257" stroke="#353535" stroke-width="0.5"/>
<path d="M188 196.626C179 176.126 178 166.626 149 167.126C120 167.626 85 174.126 75.5 172.626C66 171.126 58.5 177.626 51.5 178.126C44.5 178.626 38 181.126 34 188.126C30 195.126 24 204.626 24 207.126C24 209.626 24.5 215.626 32.5 224.126C33.3333 224.792 34.9 225.926 36.5 223.126" stroke="#353535" stroke-width="0.5"/>
<path d="M187.473 195.626C187.806 197.292 185.173 201.126 171.973 203.126C155.473 205.626 141.973 206.126 122.973 203.126C110.006 201.078 103.327 199.73 97.3727 198.126" stroke="#353535" stroke-width="0.5"/>
<path d="M75 196.626C70.5 197.626 72.5 197.626 67 200.126C62.6 202.126 60.8333 203.959 60.5 204.626" stroke="#353535" stroke-width="0.5"/>
<path d="M188.5 196.626C188.5 192.126 187.7 181.426 184.5 174.626C180.5 166.126 174.5 159.626 171.5 157.126C168.5 154.626 161.5 143.626 157.5 141.126C153.5 138.626 155 131.626 152 131.126C149 130.626 144.5 130.626 142.5 125.626C140.5 120.626 136 118.626 134 116.626C132 114.626 133.5 108.126 126.5 102.626C119.5 97.1257 114 95.6257 108.5 89.6257C106.299 87.2247 103.006 84.8071 99.7837 82.7607" stroke="#353535" stroke-width="0.5"/>
<path d="M125.5 168.126C121.5 165.626 123 162.126 119.5 159.626C116 157.126 113 157.126 111 153.626C109 150.126 105 152.626 103 148.126C101 143.626 97.5 120.126 111 111.626" stroke="#353535" stroke-width="0.5"/>
<path d="M56 123.626C60.5 136.626 63.5 138.626 69.5 137.626C70.9804 137.379 72.1758 136.907 73 136.126" stroke="#353535" stroke-width="0.5"/>
<path d="M13.4999 50.1256C13.3333 49.7922 16.1999 55.0257 22.9999 56.6257C31.4999 58.6257 40.4999 60.1257 52.9999 56.6257C62.4999 58.1258 72.4999 57.6256 78.9999 69.6256C80.8333 64.1256 85.8999 53.5256 91.4999 55.1256C98.4999 57.1256 96.9999 65.1256 92.4999 74.6256C87.9999 84.1256 88.9999 85.6256 86.9999 86.6256C85.3999 87.4256 84.3333 85.6256 83.9999 84.6256" stroke="#353535" stroke-width="0.5"/>
<path d="M84.4999 87.1258C86.9999 93.6258 80.4999 111.626 74.4999 126.126C69.6999 137.726 76.4999 148.292 80.4999 152.126C79.4999 151.292 79.8999 146.526 89.4999 134.126C101.5 118.626 107 109.626 101 88.1258C98.3424 78.6028 98.9219 70.7474 99.6536 63.1258M11.9999 84.6259C9.99994 76.6259 8.99994 56.6258 9.49994 45.6258C9.99994 34.6258 20.9999 1.12578 41.4999 1.12578C71.9999 -0.374217 88.4999 11.6258 96.9999 32.6258C98.4681 36.2529 99.3694 39.6414 99.8868 42.8762" stroke="#353535" stroke-width="0.5"/>
<path d="M98 187.5L76.4999 192.5L78.5 193.5L99.9999 188.5L98 187.5Z" fill="#7DBAF3"/>
<path d="M76.5 192.5L64.5 225.626L66.5 225.126L78.5 193.5L76.5 192.5Z" fill="#2B72B4"/>
<path d="M18 80.6257C9 88.1257 5.5 91.1257 5.5 98.6257C5.5 106.126 4.5 123.126 9 131.126C13.5 139.126 11 157.626 16 164.126C21 170.626 23.5 172.126 27.5 181.626C30.7 189.226 31.6667 191.292 32.5 190.626" stroke="#353535" stroke-width="0.5"/>
<path d="M34 141.626C39 150.626 45 151.126 46 156.126C47 161.126 50 164.126 51 166.626C51.8 168.626 55 173.792 56.5 176.126" stroke="#353535" stroke-width="0.5"/>
<path d="M99.5 40.6257C107.5 74.6257 111 89.6257 118.5 97.1257" stroke="#353535" stroke-width="0.5"/>
<path d="M78.5 193.5L100 188.5L92 215.626L66.5 225.126L78.5 193.5Z" fill="#3D8AD1" stroke="#353535" stroke-width="0.5"/>
<path d="M70.5 198.126L74 199.126M24 208.126L1 218.126L47.5 235.126L111.5 211.126L95 206.126M68 199.626L73.5 201.626M94.5 208.126L104.5 211.126L47.5 232.126L6.5 217.5L24 210" stroke="#353535" stroke-width="0.5"/>
<path d="M111.5 211.126V223.626L48 249.126L1.5 231.5L1 218" stroke="#353535" stroke-width="0.5"/>
<path d="M69 224.126L100 188.5L92 215.626L69 224.126Z" fill="#3081CC"/>
<path d="M61 198.126L43.5 203.126L41 200.626L57 196.126L61 198.126Z" fill="#8DD8D3"/>
<path d="M61 198.126L59 214.626L55 216.126M61 198.126L43.5 203.126M61 198.126L57 196.126L41 200.626M43.5 203.126L41 200.626M43.5 203.126V205.626M41 200.626V206.315" stroke="#353535" stroke-width="0.5"/>
<path d="M56.5 205.126L54.5 221.626L39 227.126M56.5 205.126L39 210.126M56.5 205.126L52.5 203.126L36.5 207.626M39 227.126V210.126M39 227.126L36.5 225.126V207.626M39 210.126L36.5 207.626" stroke="#353535" stroke-width="0.5"/>
<path d="M34 201.626C31.5 205.626 30.5 206.626 30.5 210.126C30.5 212.926 35.3333 221.126 36.5 223.126" stroke="#353535" stroke-width="0.5"/>
<path d="M37.9127 204C36.9127 205 35.2127 207.8 36.4127 211" stroke="#353535" stroke-width="0.5"/>
<circle r="5.25" transform="matrix(-1 0 0 1 61 219.626)" fill="#F09756" stroke="#353535" stroke-width="0.5"/>
<path d="M100 188.5L98 187.5L76.5 192.5M76.5 192.5L78.5 193.5M76.5 192.5L65 224.626" stroke="#353535" stroke-width="0.5"/>
<path d="M70 210.126L60 207.126" stroke="#353535" stroke-width="0.5"/>
<path d="M66.6623 47.73C61.4777 49.1858 53.4343 53.8553 52.6707 56.2878C53.3987 58.8801 56.7722 60.2474 57.8198 59.8568C58.8673 59.4662 63.9397 52.8021 66.6623 47.73Z" stroke="#59A3E8" stroke-width="2" stroke-linejoin="round"/>
<path d="M74.4121 52.4538C70.8347 53.4858 65.3036 56.7402 64.7941 58.4132C65.3183 60.1862 67.6641 61.1018 68.3862 60.8272C69.1083 60.5525 72.5672 55.9497 74.4121 52.4538Z" stroke="#59A3E8" stroke-width="1.5" stroke-linejoin="round"/>
</svg>
