<svg width="163" height="267" viewBox="0 0 163 267" fill="none" xmlns="http://www.w3.org/2000/svg">
<path d="M23 117.048C27 104.548 29.9886 85.6286 33 64.5485C36.5 40.0485 42.5 12.0485 52 7.54846C61.5 3.04846 68.5 -1.45154 75.5 2.54846C80.6667 2.04847 92 3.24846 96 10.0485C101 18.5485 100.5 18.0485 103.5 24.0485C106.541 30.1312 107 37.0485 109.5 65.5485C110.991 82.5492 113.667 99.0485 115 103.548C111.833 103.048 104.8 101.648 102 100.048C98.5 98.0485 97 97.0485 93.5 97.0485C90 97.0485 88.5 95.0485 88 94.0485C87.5 93.0485 86.5 88.5485 86.5 88.0485C86.5 87.5485 91.5 84.0485 92.5 81.5485C93.5 79.0485 95 79.5485 96 70.5485C97 61.5485 99 57.5485 99 52.0485C99 46.5485 97 26.0485 85 25.0485C73 24.0485 77 25.5485 66.5 23.0485C61 23.0485 59.5 26 56.5 30.0485C53.7125 33.8101 48.6667 39.5485 45.5 41.5485C45 51.3818 44.0895 71.7275 46 75.5485C47.5 78.5485 49.6667 81.2151 50 81.5485C51 86.3818 52 97.3485 50 100.548C49.884 100.734 49.7786 100.904 49.6832 101.059C49.7961 101.052 49.9022 101.048 50 101.048C49.215 102.147 48.1343 103.572 49.6832 101.059C48.2571 101.146 45.7413 101.825 45 104.048C44.5 105.048 36 107.548 23 117.048Z" fill="#5C5C5C"/>
<path d="M45 104.048C36 108.548 19.8284 118.439 15.8284 122.939C11.8284 127.439 6.82843 132.939 7.32843 145.439C7.36188 146.275 7.39309 147.109 7.42281 147.939C7.83737 159.513 6.46216 158.274 8.32837 162.939" stroke="#353535" stroke-width="0.5" stroke-linejoin="round"/>
<path d="M8.32837 162.939C9.32837 164.439 20.3284 173.939 26.3284 175.439M13.3284 134.439C15.8284 140.439 17.3284 140.439 18.3284 142.939C19.3284 145.439 25.8284 173.439 27.8284 179.939C29.8284 186.439 24.3284 197.939 24.8284 207.939C25.3284 217.939 24.8284 221.439 26.3284 225.939C27.8284 230.439 27.8284 232.939 27.8284 242.939C27.8284 252.939 24.8284 252.939 27.8284 260.439C30.2284 266.439 29.495 266.939 28.8284 266.439C29.1617 265.773 29.9284 263.839 30.3284 261.439C30.8284 258.439 28.8284 254.439 33.3284 251.439C37.8284 248.439 57.5 267.048 60.5 263.548C63.5 260.048 87.5 266.048 92 265.548C96.5 265.048 106.828 254.939 113.828 253.939" stroke="#353535" stroke-width="0.5" stroke-linejoin="round"/>
<path d="M99.8284 98.4392C105.828 103.439 122.828 102.939 131.828 110.439C140.828 117.939 140.328 126.939 146.828 138.439C153.328 149.939 154.828 160.939 154.828 165.439C154.828 169.939 157.328 177.939 157.328 180.939C157.328 183.939 161.828 183.439 161.328 187.939C160.828 192.439 159.328 190.439 161.328 196.439C163.328 202.439 161.328 203.439 161.328 206.439C161.328 209.439 159.328 214.939 158.328 217.939C157.328 220.939 146.828 232.439 146.828 238.939C146.828 245.439 145.828 251.439 138.328 254.439C132.328 256.839 131.495 260.439 131.828 261.939" stroke="#353535" stroke-width="0.5" stroke-linejoin="round"/>
<path d="M105 258.048C117.5 265.548 120.328 252.439 125.828 256.939C130.228 260.539 130.995 263.106 130.828 263.939C132.328 259.939 134.828 250.639 132.828 245.439C130.328 238.939 130.828 215.939 130.828 203.439C130.828 190.939 130.828 194.939 125.828 184.439M125.828 181.439C132.328 187.939 131.828 189.439 131.828 192.439C131.828 195.439 131.828 194.439 131.828 198.939C131.828 203.439 135.828 203.939 134.328 207.939C132.828 211.939 131.828 213.939 131.828 216.939C131.828 219.939 133.328 218.439 130.828 222.439M122.828 135C121.328 145.5 122.828 159.561 125.828 166.561C128.828 173.561 123.828 191 121.328 194C118.828 197 119 205 119.5 206.5" stroke="#353535" stroke-width="0.5" stroke-linejoin="round"/>
<path d="M49.9578 100.939C41.4578 101.439 44.3284 111.439 50.3284 113.439C53.3417 114.444 64.913 123.39 74.3284 121.939C83.6605 120.501 90.8395 108.679 93.3284 106.439C98.3284 101.939 100.328 98.4392 95.3284 96.9392M95.3284 96.9392C93.6017 96.4212 99.3284 97.4392 100.328 98.9392M95.3284 96.9392C86.3284 96.9392 88.3284 93.4392 86.3284 87.9392M50 81.5485C51 85.5485 52.3284 102.439 47.8284 103.439" stroke="#353535" stroke-width="0.5" stroke-linejoin="round"/>
<path d="M46.8283 77.4392C43.8283 72.9392 44.8283 46.9392 45.3283 41.9392C46.1617 40.2725 52.4506 36.2497 56.3284 30.4392C61 23.4391 64.7284 22.2392 68.3284 23.4391C71.9284 24.6391 77.495 24.6058 79.8284 24.9392C95.8284 22.4391 98.8284 42.9392 98.8284 50.4392C98.8284 57.9392 96.3284 65.9392 95.8284 71.4392C95.3284 76.9392 92.8284 82.4392 90.3284 84.4392C87.8284 86.4392 76.3284 97.9392 68.3284 95.9392C60.3284 93.9392 49.8283 81.9392 46.8283 77.4392Z" stroke="#353535" stroke-width="0.5" stroke-linejoin="round"/>
<path d="M22.8284 117.439C35 80.5483 33.3284 18.9391 51.8284 7.93908C66.6284 -0.860923 73.6617 0.605743 75.3284 2.43908C80.3284 1.60575 93 3.14834 97 11.5483C102 22.0483 106.328 23.4391 107.828 44.9391C109.328 66.4391 113.328 100.939 114.828 103.939" stroke="#353535" stroke-width="0.5" stroke-linejoin="round"/>
<path d="M7.5 148C5 160.5 5.82843 178.939 3.82843 191.439C1.82843 203.939 -0.171573 197.439 1.82843 206.939C3.82843 216.439 3.82843 216.939 3.82843 223.439C3.82843 229.939 -0.671631 230.439 9.32837 237.439C19.3284 244.439 16.8284 242.939 20.3284 253.939C23.1284 262.739 27.8284 265.939 29.8284 266.439" stroke="#353535" stroke-width="0.5" stroke-linejoin="round"/>
<path d="M48 103.048C50.6667 107.215 59.1284 116.739 72.3284 121.939C77.995 119.106 90.0284 110.139 92.8284 96.9392" stroke="#353535" stroke-width="0.5" stroke-linejoin="round"/>
<path d="M66.8284 154.439C62.8284 137.939 48.3284 116.939 46.8284 111.439C46.8284 111.439 50.8284 114.439 51.8284 114.439C52.8284 114.439 55.2284 120.739 58.8284 125.939C62.4284 131.139 67.495 146.273 68.8284 151.439L66.8284 154.439Z" fill="#59A3E8" stroke="#353535" stroke-width="0.5" stroke-linejoin="round"/>
<path d="M75.3284 154.439C76.3284 139.939 91.8284 125.439 101.328 99.4392C100.328 98.7725 98.0284 97.4392 96.8284 97.4392H96.3284C96.995 97.6059 98.3284 98.3392 98.3284 99.9392C98.3284 101.539 96.3284 103.939 95.3284 104.939C91.8284 112.106 83.5284 128.139 78.3284 134.939C73.1284 141.739 71.8284 149.106 71.8284 151.939L75.3284 154.439Z" fill="#59A3E8" stroke="#353535" stroke-width="0.5" stroke-linejoin="round"/>
<circle cx="70.3284" cy="156.939" r="7.5" fill="#E1A376"/>
</svg>
