<svg width="248" height="220" viewBox="0 0 248 220" fill="none" xmlns="http://www.w3.org/2000/svg">
<path d="M161 144.5L165 144L150.5 108.416C147.7 108.816 147 110.249 147 110.916L161 144.5Z" fill="#EF58A0"/>
<path d="M150.5 108.416C150.167 109.249 149 110.816 147 110.416C147.5 109.416 149.7 108.416 150.5 108.416Z" fill="#F2C8A9"/>
<path d="M195.379 41.1448C189.711 57.5935 192.814 74.2048 199 85.4164C196.5 86.4164 191.2 88.5164 190 88.9164C188.5 89.4164 187 90.9164 185 91.4164C183.4 91.8164 179.5 97.936 178 98.936C176 104.436 175 107.936 168 104.916C165 106.936 160 108.936 159.5 108.936C161.833 109.436 167 111.216 167 114.416V114.417C167 118.416 167 120.936 167.5 123.436C168.326 127.565 175 135.916 175.5 135.916C176 135.916 175.176 132.498 176.5 129.416C179.5 122.436 184 119.936 188.5 115.936C194.045 111.007 204.5 102.936 209 98.4164C212.528 94.8732 225 87.436 229 70.436C230.238 65.1738 230.309 62.5217 230 57.936C229 52.936 226.328 45.2774 225 42.4164C220.667 33.2497 214.04 23.9116 212.5 21.4163C210.541 18.2428 207.411 14.1562 205 12.4359C193 6.93593 197.672 9.2484 194.5 7.43592C191 5.43586 178.5 -3.56421 155.5 3.93588C144.372 7.56462 139.5 9.41633 121.5 21.9163C103.5 34.4163 95 48.4163 95 51.4163C95 54.4163 99 63.436 100 69.9163C101.07 76.8521 101.5 85.436 110.5 101.436C110.833 99.1027 108.747 90.7881 125 78.436C137.5 68.936 147.5 63.936 161.5 57.936C166.858 55.6397 171.66 54.2444 178 51.936C185.473 49.7382 193.103 45.3329 195.379 41.1448Z" fill="#5C5C5C"/>
<path d="M198.5 85.3538C195.5 86.8538 188.5 89.8538 184.5 89.8538C179.5 89.8538 177.5 102.354 175 104.854C173 106.854 169.5 105.687 168 104.854C166.5 105.854 163 107.954 161 108.354C159.861 108.354 155.84 110.083 152 111.791M126.5 91.8538C137.579 116.421 143.554 115.463 148 113.572" stroke="#353535" stroke-width="0.5"/>
<path d="M190 88.8538C187 91.3538 185.5 90.3538 183.5 92.8538C181.9 94.8538 178.833 98.0204 177.5 99.3538" stroke="#353535" stroke-width="0.5"/>
<path d="M195 44.3538C189 56.8538 195 80.3538 199.5 86.3538" stroke="#353535" stroke-width="0.5"/>
<path d="M157 110.354C158.5 114.854 158.5 110.854 155 118.354C154.921 118.523 154.848 118.689 154.781 118.854M83 61.8539C84.5 59.6872 89.3 60.4539 96.5 80.8539C105.5 106.354 112.5 125.854 133.5 130.354C140.345 131.821 143.5 131.354 151.5 130.354C153.131 130.15 154.097 129.842 154.631 129.418" stroke="#353535" stroke-width="0.5"/>
<path d="M99 66.3538C96.8333 68.0204 94.6 68.6538 91 67.8538" stroke="#353535" stroke-width="0.5"/>
<path d="M97.5 60.3538C89.5 61.3538 84.5 58.3539 83 60.3539C81.5 62.3539 81.5 64.3538 77.5 66.3538C73.5 68.3538 75 67.3538 72 69.3538C69 71.3538 57.5 75.3538 51.5 86.8538C45.5 98.3538 45.5 96.8538 43 100.854C40.5 104.854 32.5 113.854 34 118.854C35.2 122.854 37.5 127.187 38.5 128.854" stroke="#353535" stroke-width="0.5"/>
<path d="M74.5 135.854C76.8333 132.354 78.4 123.354 66 115.354C50.5 105.354 52.5 101.854 44 105.854C37.2 109.054 34.5 115.52 34 118.354" stroke="#353535" stroke-width="0.5"/>
<path d="M49.5 104.854C48.1666 109.187 44.6999 119.254 41.4999 124.854C37.4999 131.854 32.9999 143.854 30.9999 153.354C28.9999 162.854 24.4999 175.854 28.9999 184.354C33.4999 192.854 78.5 192.354 109.5 184.354C140.5 176.354 152.5 182.354 162.5 176.854C170.5 172.454 170.833 170.354 170 169.854C172 169.187 177 167 177 163.5C177 160 181.823 160 180 156.354C178.5 153.354 172.5 153.416 170.5 152.416C168.5 151.416 177.495 151.881 177 148.416C176.5 144.916 174 142.916 170.5 143.416C167 143.916 162.5 143.416 150 147.354C137.628 151.251 136.5 153.854 128 156.354C119.5 158.854 73.5 160.354 67 153.354L74.5 135.354" stroke="#353535" stroke-width="0.5"/>
<path d="M165 144L150.5 108.354C149.167 108.52 146.6 109.254 147 110.854C147.4 112.454 156.667 134.333 161 144.5" stroke="#353535" stroke-width="0.5"/>
<path d="M197.5 33.8539C193.5 54.3539 178.301 46.6015 137.5 69.9161C106 87.9161 109.167 102.854 113 104.354C110 101.187 103.3 90.5539 100.5 73.3539C97.0001 51.8539 90.5001 55.3539 100.5 41.8539C110.5 28.3539 163.5 -17.584 197.5 9.41584C206 11.416 209.5 15.516 215.5 25.916C223 38.916 246.5 67.8538 211 96.8538C175.5 125.854 176 126.854 175.5 135.854C172.167 132.687 165.8 124.654 167 117.854C168.2 111.054 162.167 109.02 159 108.854" stroke="#353535" stroke-width="0.5"/>
<path d="M175.5 135.854C175.333 137.687 175.4 139.054 175 139.854" stroke="#353535" stroke-width="0.5"/>
<path d="M52.5 155.354C55.1667 153.854 61.8 151.354 67 153.354" stroke="#353535" stroke-width="0.5"/>
<path d="M182 121.854C183.5 132.854 188.667 134.354 189 137.354" stroke="#353535" stroke-width="0.5"/>
<path d="M206 142.854C220.806 158.228 229.5 173.416 247 179.416C253.995 181.814 171.709 205.106 145.5 207.916" stroke="#353535" stroke-width="0.5"/>
<path d="M237 126.936L166 143.5M1 182.854L27 176.606M102 158.354L151.5 146.687" stroke="#353535" stroke-width="0.5"/>
<path d="M206 142.854L177.5 148.854" stroke="#353535" stroke-width="0.5"/>
<path d="M145.5 208.416C144.7 202.016 134.167 184.02 132.5 180.854" stroke="#353535" stroke-width="0.5"/>
<path d="M184.71 175.083C185.009 174.714 185.433 174.198 185.917 174.061C186.619 173.863 187.404 173.926 188.126 173.851C188.86 173.775 189.578 173.575 190.316 173.539C191.288 173.491 192.243 173.16 193.209 173.006C194.383 172.818 195.503 172.449 196.63 172.081C198.446 171.487 200.296 170.405 201.507 168.91C202.135 168.136 202.904 167.343 202.561 166.289C202.286 165.444 202.04 164.809 201.568 164.074C201.429 163.858 200.9 163.319 200.633 163.331C199.253 163.395 197.906 163.483 196.519 163.386C195.449 163.312 194.469 163.184 193.4 163.219C192.576 163.245 191.763 162.634 191.019 163.13C190.79 163.282 190.447 163.493 190.273 163.691C189.951 164.057 189.823 162.735 189.73 162.546C189.526 162.133 189.416 161.684 189.227 161.261C189.018 160.792 188.678 160.557 188.286 160.24C187.441 159.555 186.656 158.816 185.553 158.644C184.851 158.534 184.077 158.552 183.374 158.691C182.833 158.799 182.321 159.073 181.792 159.179C181.078 159.322 180.201 160.11 179.732 160.689C179.257 161.275 178.674 161.855 178.361 162.542C178.059 163.205 178.167 163.998 178.184 164.701C178.215 165.989 178.281 167.157 178.85 168.327C179.209 169.067 179.514 169.89 179.964 170.59" stroke="#EF9EC5" stroke-width="0.5" stroke-linecap="round"/>
<path d="M184.346 175.047C184.438 175.202 184.138 175.561 184.075 175.705C183.889 176.134 183.816 176.567 183.733 177.025C183.549 178.046 183.367 179.058 183.276 180.087C183.212 180.819 182.97 181.471 183.052 182.214C183.178 183.355 183.251 184.508 183.193 185.652C183.135 186.789 183.316 187.958 183.019 189.065C182.845 189.714 182.753 190.505 182.445 191.104C182.185 191.609 181.831 192.113 181.674 192.666C181.54 193.137 181.474 193.329 181.056 193.662C180.152 194.382 179.387 194.822 178.276 194.344C176.783 193.703 176.838 192.192 176.415 190.836C176.199 190.146 175.917 189.341 175.572 188.714C175.3 188.221 175.278 187.398 175.098 186.855C174.774 185.877 173.822 184.764 173.87 183.68C173.896 183.102 174.605 182.586 173.593 182.585C172.39 182.584 171.326 182.25 170.359 181.454C169.209 180.508 168.647 179.42 168.329 178.003C168.125 177.096 167.948 175.892 168.3 174.993C168.582 174.272 168.984 173.789 169.486 173.17C169.698 172.908 170.177 172.831 170.479 172.717C171.104 172.481 171.658 172.019 172.335 171.918C172.905 171.833 173.388 171.438 173.973 171.425C174.487 171.414 175.019 171.15 175.548 171.098C175.96 171.057 176.28 171.23 176.67 171.258C177.298 171.305 178.211 171.137 178.761 171.428" stroke="#EF9EC5" stroke-width="0.5" stroke-linecap="round"/>
<path d="M187.112 183.116C186.717 182.796 186.538 182.531 186.891 182.095C187.135 181.795 187.578 182.582 187.239 182.96C186.815 183.432 186.236 183.019 186.579 182.49C186.623 182.421 186.856 182.05 186.963 182.096C187.16 182.18 187.071 182.421 186.938 182.514C186.69 182.686 186.88 182.091 186.891 182.059C187.015 181.702 186.912 181.238 186.864 180.871C186.779 180.222 186.29 179.696 186.155 179.096C186 178.405 185.607 177.848 185.513 177.129C185.442 176.584 185.139 176.064 184.979 175.56" stroke="#BE0B61" stroke-width="0.5" stroke-linecap="round"/>
<path d="M192.67 176.742C192.187 176.658 191.446 176.313 191.88 175.778C192.274 175.292 192.546 175.925 192.259 176.28C191.8 176.846 191.954 175.839 192.233 176.007C192.587 176.219 192.271 176.427 192.088 176.652C191.836 176.964 191.59 176.916 191.227 176.997C190.115 177.243 188.94 176.672 187.895 176.319C187.247 176.1 186.557 176.072 185.913 175.828C185.5 175.671 184.792 174.848 184.346 175.047" stroke="#BE0B61" stroke-width="0.5" stroke-linecap="round"/>
<path d="M184.457 175.396C184.298 175.489 183.931 175.154 183.811 175.088C183.217 174.765 182.588 174.491 181.98 174.195C181.716 174.066 181.194 173.936 181.037 173.632C180.672 172.922 180.057 172.298 179.563 171.66C179.195 171.187 179.004 170.686 178.415 170.399C177.885 170.142 177.48 169.872 177.019 169.499C176.544 169.113 176.085 168.921 176.2 168.317C176.357 167.497 176.96 168.026 177.4 168.382C178.01 168.877 178.605 169.404 179.237 169.871C179.906 170.365 180.64 170.3 181.305 170.633C182.811 171.389 184.368 172.661 185.319 174.009C185.638 174.46 185.643 174.741 185.299 175.165C184.959 175.585 183.438 174.062 183.192 173.839C182.754 173.442 182.484 172.951 182.119 172.495C181.715 171.988 181.199 171.581 180.726 171.142C180.61 171.035 179.835 170.337 180.414 170.825C180.915 171.247 181.332 171.743 181.799 172.199C182.384 172.77 182.991 173.302 183.626 173.816C183.773 173.935 184.405 174.343 183.85 174.142C183.001 173.834 182.373 173.319 181.681 172.758C181.242 172.403 180.974 172.021 180.672 171.559C180.543 171.362 179.362 170.168 180.05 170.745C180.62 171.224 181.05 171.86 181.476 172.462C181.546 172.561 181.91 172.962 181.889 173.121C181.881 173.175 181.205 172.607 181.168 172.573C180.874 172.299 180.616 172.018 180.375 171.7" stroke="#BE0B61" stroke-width="0.5" stroke-linecap="round"/>
<path d="M182.288 175.969C182.147 176.144 182.003 176.212 181.855 176.352C181.25 176.922 181.185 178.069 181.066 178.835C180.973 179.43 180.772 180.055 180.776 180.657C180.778 181.187 180.79 181.705 180.75 182.234C180.674 183.244 180.579 184.412 180.715 185.422C180.805 186.081 180.941 186.851 180.495 187.401C180.143 187.834 179.705 188.749 179.055 188.378C178.069 187.816 177.615 187.383 177.726 186.128" stroke="#D53682" stroke-width="0.5" stroke-linecap="round"/>
<path d="M186.199 172.923C186.589 172.442 186.968 171.936 187.529 171.641C188.587 171.084 189.883 170.986 191.024 170.689C192.761 170.235 194.425 169.82 196.077 169.143C196.775 168.857 197.744 168.185 197.805 167.334C197.876 166.336 196.888 165.251 195.873 165.352" stroke="#D53682" stroke-width="0.5" stroke-linecap="round"/>
<path d="M177.683 175.345C177.105 176.059 176.201 176.433 175.585 177.135C175.035 177.762 174.47 178.984 173.562 179.128C172.145 179.353 171.28 178.097 171.185 176.814C171.087 175.471 172.767 174.519 173.95 174.507C175.277 174.494 176.54 174.323 177.778 174.905" stroke="#D53682" stroke-width="0.5" stroke-linecap="round"/>
<path d="M182.608 168.459C181.708 168.213 181.472 166.531 181.285 165.761C181.179 165.321 180.838 164.889 180.905 164.424C180.96 164.046 181.037 163.668 181.174 163.311C181.305 162.97 181.789 162.367 182.089 162.182C182.409 161.985 183.167 162.201 183.517 162.253C184.091 162.337 184.299 162.448 184.756 162.817C185.325 163.279 185.258 163.691 185.069 164.309C184.758 165.327 184.452 166.184 183.784 167.009C183.413 167.466 183.042 167.923 182.672 168.381" stroke="#D53682" stroke-width="0.5" stroke-linecap="round"/>
<path d="M177.583 186.143C177.744 185.739 177.723 185.182 177.79 184.756C177.889 184.113 177.968 183.474 178.105 182.839C178.217 182.322 178.317 181.831 178.527 181.339C178.858 180.565 179.157 179.699 179.676 179.032C180.355 178.159 181.07 177.312 181.766 176.453" stroke="#D53682" stroke-width="0.5" stroke-linecap="round"/>
<path d="M186.247 172.055C185.167 173.388 188.214 169.141 189.643 168.188C190.328 167.732 191.129 167.47 191.836 167.045C192.304 166.763 192.84 166.537 193.356 166.355C194.24 166.045 195.061 165.394 195.92 165.131" stroke="#D53682" stroke-width="0.5" stroke-linecap="round"/>
<path d="M184.298 175.915C183.668 176.049 183.812 177.421 183.785 177.851C183.694 179.295 183.562 180.611 183.842 182.049C184.022 182.974 184.173 183.884 184.277 184.818C184.313 185.146 184.502 185.496 184.483 185.813C184.424 186.812 184.211 187.969 183.874 188.909C183.716 189.35 183.53 189.962 183.231 190.331C182.485 191.252 181.815 192.241 181.065 193.166C180.677 193.645 180.268 193.961 179.605 193.709C178.603 193.329 177.655 192.348 176.877 191.65C176.366 191.191 176.278 190.49 176.037 189.883C175.656 188.922 175.416 187.883 175.145 186.886C174.852 185.805 174.758 184.295 173.933 183.45C173.449 182.956 172.976 182.574 172.319 182.387C171.635 182.193 171.285 182.074 170.73 181.625C170.358 181.324 169.956 181.039 169.609 180.709C169.317 180.432 169.196 179.997 169.011 179.65C168.55 178.784 168.161 177.974 167.892 177.023C167.784 176.64 167.489 176.098 167.506 175.703C167.521 175.355 167.791 175.049 167.859 174.701C167.953 174.228 168.173 173.788 168.425 173.383C169.044 172.389 169.949 172.366 171.051 172.173C172.346 171.946 173.973 171.359 175.275 171.776C175.921 171.983 176.503 171.901 177.161 172.001C177.671 172.079 178.18 172.204 178.697 172.153" stroke="#D53682" stroke-width="0.5" stroke-linecap="round"/>
<path d="M179.98 170.085C179.353 169.299 179.173 168.245 178.795 167.325C178.316 166.161 178.094 164.973 177.785 163.774C177.601 163.059 177.87 162.177 178.319 161.623C179.075 160.69 179.899 159.248 181.024 158.779C181.607 158.537 182.417 158.722 183.017 158.818C183.942 158.968 184.901 158.83 185.842 158.935C186.972 159.062 188.671 159.635 189.163 160.82C189.461 161.539 189.107 163.236 189.752 163.759C189.91 163.887 190.095 164.131 190.313 164.055C191.048 163.798 191.68 163.254 192.393 162.935C193.503 162.437 194.961 162.169 196.18 162.133C198.379 162.069 200.673 162.994 202.283 164.467C202.808 164.948 203.285 165.908 202.815 166.488C202.003 167.49 201.192 168.492 200.38 169.493C198.881 171.343 196.138 171.892 194.191 173.097C193.003 173.831 191.47 173.792 190.153 174.127C188.513 174.543 186.823 174.983 185.28 175.674" stroke="#D53682" stroke-width="0.5" stroke-linecap="round"/>
<path d="M179.973 185.619C179.727 185.546 179.192 185.294 179.269 184.969C179.457 184.181 179.864 184.933 179.961 185.364C180.074 185.869 180.483 187.75 179.446 186.997C179.142 186.777 178.694 186.389 179.008 186.002C179.17 185.801 179.311 185.488 179.511 185.848C179.699 186.188 179.894 187.208 179.194 186.85C177.929 186.204 177.642 185.078 177.757 183.736C177.777 183.501 178.389 180.31 178.716 180.485C179.696 181.01 179.588 183.265 179.444 184.125C179.384 184.478 179.321 184.916 179.18 185.25C179.093 185.457 178.915 184.339 178.924 184.236C179.017 183.127 179.378 181.654 179.883 180.654C180.349 179.731 180.208 180.716 180.149 181.251C180.048 182.174 179.911 183.1 179.727 184.009C179.642 184.428 179.551 185.304 179.24 185.643C179.128 185.765 178.783 185.436 178.723 185.383C178.211 184.927 178.259 184.259 178.301 183.63C178.363 182.703 178.575 181.811 178.829 180.922C178.957 180.471 179.052 179.784 179.373 179.406C179.882 178.806 179.935 181.36 179.896 181.671" stroke="#EFBCD5" stroke-width="0.5" stroke-linecap="round"/>
<path d="M192.564 167.98C191.835 168.879 190.707 169.456 189.679 169.959C189.448 170.071 189.055 170.29 188.777 170.191C188.11 169.954 188.977 169.19 189.171 168.95C190.564 167.231 192.173 165.706 194.449 165.421C195.073 165.342 195.154 165.43 194.7 165.991C193.475 167.502 191.707 168.697 189.857 169.326C189.697 169.38 189.439 169.353 189.577 169.114C190.078 168.248 190.95 167.571 191.806 167.092C192.664 166.611 194.534 165.432 195.523 166.233C196.029 166.644 193.823 168.384 193.526 168.536C192.659 168.98 190.984 169.58 190.139 168.727C189.825 168.41 190.804 167.728 190.955 167.611C191.688 167.044 192.509 166.596 193.342 166.193C194.312 165.724 195.44 165.137 196.545 165.062C196.78 165.046 197.393 165.111 197.581 165.311C198.083 165.846 195.64 167.898 195.368 168.122C194.335 168.973 192.947 170.294 191.45 170.055C191.175 170.012 190.732 169.938 190.553 169.688C190.19 169.18 191.445 168.144 191.74 167.909C192.703 167.145 194.312 166.676 195.316 167.62C195.536 167.827 194.713 168.456 194.625 168.527C193.259 169.623 191.595 169.997 189.953 170.483C188.143 171.018 186.348 172.197 184.964 173.476" stroke="#EFBCD5" stroke-width="0.5" stroke-linecap="round"/>
<path d="M182.213 167.491C181.982 167.067 182.167 166.301 182.175 165.849C182.193 164.888 181.855 163.852 181.966 162.909C182.007 162.555 182.325 162.604 182.57 162.73C183.448 163.182 184.021 163.615 184.149 164.671C184.206 165.137 184.178 166.996 183.2 166.723C181.813 166.334 181.907 164.633 182.489 163.629C182.861 162.988 183.251 163.018 183.581 163.837C183.987 164.846 183.837 166.13 183.56 167.151C183.534 167.247 183.427 167.616 183.249 167.525C182.681 167.232 182.448 166.434 182.4 165.859C182.385 165.676 182.42 164.672 182.66 164.551C183.068 164.345 183.063 166.562 183.055 166.713C183.024 167.272 183.015 167.94 182.751 168.445" stroke="#EFBCD5" stroke-width="0.5" stroke-linecap="round"/>
<path d="M174.644 176.509C174.243 177.003 173.79 177.865 173.167 178.089C172.916 178.179 172.732 178.126 172.566 177.904C172.221 177.443 172.909 176.858 173.175 176.542C173.727 175.887 174.73 175.167 175.646 175.191C175.963 175.199 175.457 175.667 175.399 175.739C174.955 176.286 174.482 177.161 173.831 177.476C173.548 177.613 171.979 177.303 172.285 176.841C173.141 175.549 175.095 174.864 176.609 174.892C176.936 174.898 176.708 175.147 176.551 175.241C176.148 175.485 175.61 175.553 175.164 175.678C174.464 175.875 173.779 176.148 173.07 176.312C172.877 176.357 172.419 176.407 172.238 176.243C171.885 175.923 174.259 175.082 174.407 175.022" stroke="#EFBCD5" stroke-width="0.5" stroke-linecap="round"/>
<path d="M178.914 183.854C178.999 183.931 179.259 184.501 178.938 184.363C178.523 184.185 178.497 183.883 178.726 183.601C178.882 183.408 178.947 183.481 179.121 183.634C179.318 183.806 179.075 183.951 179.104 183.619" stroke="#F09756" stroke-width="0.5" stroke-linecap="round"/>
<path d="M191.82 167.766C192.554 166.86 192.911 168.16 192.282 168.615C192.007 168.814 190.635 168.651 190.831 168.187C190.904 168.013 191.093 167.837 191.25 167.822" stroke="#F09756" stroke-width="0.5" stroke-linecap="round"/>
<path d="M182.341 164.746C182.467 164.824 182.532 164.674 182.661 164.674C182.932 164.676 183.364 165.186 183.56 165.345" stroke="#F09756" stroke-width="0.5" stroke-linecap="round"/>
<path d="M183.37 165.579C182.95 165.239 182.782 165.172 183.133 164.74" stroke="#F09756" stroke-width="0.5" stroke-linecap="round"/>
<path d="M183.212 164.804L183.085 164.96" stroke="#F09756" stroke-width="0.5" stroke-linecap="round"/>
<path d="M182.768 165.351L182.531 165.159" stroke="#F09756" stroke-width="0.5" stroke-linecap="round"/>
<path d="M174.295 177.262C173.864 176.912 174.067 175.926 174.391 175.527" stroke="#F09756" stroke-width="0.5" stroke-linecap="round"/>
<path d="M174.09 176.06C173.481 176.228 173.241 175.478 174.074 175.918" stroke="#F09756" stroke-width="0.5" stroke-linecap="round"/>
<path d="M174.391 176.174C174.107 176.398 173.841 176.044 174.059 175.776" stroke="#F09756" stroke-width="0.5" stroke-linecap="round"/>
<path d="M174.28 176.473C174.082 176.59 173.152 176.518 173.256 176.146C173.322 175.907 173.615 175.676 173.821 175.583" stroke="#F09756" stroke-width="0.5" stroke-linecap="round"/>
<path d="M174.533 176.16L174.612 176.224" stroke="#F09756" stroke-width="0.5" stroke-linecap="round"/>
<path d="M218.657 175.714C218.772 176.75 222.173 175.421 222.511 175.323C223.155 175.136 226.579 174.138 226.626 175.505C226.641 175.947 226.61 176.106 226.131 176.156C225.023 176.272 223.871 176.182 222.759 176.182C222.546 176.182 221.657 176.09 222.355 176.234C223.088 176.386 223.853 176.634 224.438 177.12C224.749 177.378 225.888 179.015 225.024 179.203C223.938 179.439 223.257 178.887 222.446 178.266C221.627 177.638 220.996 176.796 219.946 176.534" stroke="#D53682" stroke-width="0.5" stroke-linecap="round"/>
<path d="M219.009 176.417C220.916 175.71 222.977 175.441 224.907 174.802C225.723 174.532 226.444 174.19 227.316 174.19C227.652 174.19 228.236 174.089 228.546 174.268C229.155 174.621 228.977 176.118 228.195 176.176C226.977 176.266 225.724 176.182 224.503 176.182C223.235 176.182 224.358 176.669 224.868 177.003C225.582 177.47 226.47 178.127 226.092 179.099C225.871 179.667 223.813 179.513 223.279 179.457C222.643 179.39 222.272 178.525 221.873 178.109C221.338 177.551 220.851 177.151 220.18 176.768" stroke="#D53682" stroke-width="0.5" stroke-linecap="round"/>
<path d="M205.298 161.886C205.298 162.608 207.507 161.711 207.772 161.586C208.637 161.178 209.438 161.065 210.395 161.065C211.061 161.065 210.6 162.286 210.22 162.485C209.767 162.721 209.031 162.589 208.54 162.589C207.771 162.589 207.558 162.481 208.221 162.94C208.432 163.086 209.38 163.832 208.735 164.047C208.172 164.235 207.284 164.158 206.73 163.969C206.248 163.804 205.7 163.552 205.324 163.201C205.19 163.076 205.141 162.787 204.998 162.706C204.513 162.428 204.641 162.082 205.155 162.029C206.598 161.879 207.804 161.734 209.139 161.104C209.816 160.785 211.641 159.899 212.199 160.896C212.569 161.557 212.391 163.141 211.457 163.175C210.739 163.201 210.014 163.175 209.295 163.175C208.891 163.175 209.165 164.089 209.165 164.412C209.165 165.361 208.578 165.284 207.785 165.284C205.813 165.284 205.749 162.839 204.478 161.886" stroke="#D53682" stroke-width="0.5" stroke-linecap="round"/>
<path d="M158.19 195.401C158.19 196.158 158.357 197.143 158.007 197.842C157.889 198.079 157.656 198.758 157.428 198.91C156.376 199.611 156.184 197.907 156.757 197.289C156.937 197.095 156.921 197.263 156.81 197.367C156.598 197.563 156.249 197.601 155.983 197.679C155.689 197.765 155.026 197.926 155.026 197.503C155.026 196.752 157.341 196.517 157.877 196.364C158.404 196.214 158.978 196.187 159.479 195.987" stroke="#D53682" stroke-width="0.5" stroke-linecap="round"/>
<path d="M153.151 187.198C152.462 187.244 151.857 187.549 151.159 187.549C150.751 187.549 150.343 187.549 149.935 187.549C149.667 187.549 149.674 187.115 149.941 187.087C150.122 187.068 150.671 187.122 150.28 186.905C150.089 186.799 149.86 186.893 149.687 186.729C149.528 186.578 149.094 185.916 149.31 185.7C149.613 185.397 151.379 186.033 151.719 186.117C152.6 186.334 153.463 186.677 154.323 186.963" stroke="#D53682" stroke-width="0.5" stroke-linecap="round"/>
<path d="M214.11 183.355C213.264 183.042 212.4 182.744 211.58 182.371" stroke="#F09756" stroke-width="0.5" stroke-linecap="round"/>
<path d="M213.126 177.032C212.81 176.684 212.134 176.614 211.721 176.469" stroke="#F09756" stroke-width="0.5" stroke-linecap="round"/>
<path d="M218.185 166.492C217.529 166.55 216.875 166.594 216.218 166.633" stroke="#F09756" stroke-width="0.5" stroke-linecap="round"/>
<path d="M200.479 151.878C199.771 151.878 199.267 151.852 198.652 152.159" stroke="#F09756" stroke-width="0.5" stroke-linecap="round"/>
<path d="M189.94 158.342C189.562 158.361 189.285 158.459 188.956 158.623" stroke="#F09756" stroke-width="0.5" stroke-linecap="round"/>
<path d="M193.594 184.198C193.594 185.711 193.73 186.998 194.296 188.414" stroke="#F09756" stroke-width="0.5" stroke-linecap="round"/>
<path d="M164.224 185.884C162.785 186.899 161.299 187.865 159.884 188.913C159.535 189.172 159.459 189.322 159.306 189.678" stroke="#F09756" stroke-width="0.5" stroke-linecap="round"/>
<path d="M166.051 195.018C165.964 195.544 165.776 196.053 165.63 196.564" stroke="#F09756" stroke-width="0.5" stroke-linecap="round"/>
<path d="M210.457 213.47L157.511 205.288L157.052 208.253L209.999 216.435C209.999 216.435 210.572 215.512 210.648 215.018C210.724 214.523 210.457 213.47 210.457 213.47Z" fill="#C1045F"/>
<path d="M200.661 215.938L159.599 216.247L159.612 219.247L200.674 218.938C200.674 218.938 200.996 217.936 200.993 217.436C200.991 216.936 200.661 215.938 200.661 215.938Z" fill="#E1A376"/>
<path d="M221.622 211.422L174.047 203.791L173.548 206.749L221.124 214.38C221.124 214.38 221.668 213.455 221.751 212.962C221.834 212.469 221.622 211.422 221.622 211.422Z" fill="#EF5FA4"/>
<path d="M210.173 213.426C209.833 214.205 209.267 215.879 209.722 216.348C210.176 216.817 211.309 214.599 210.173 213.426Z" fill="#F2C8A9"/>
<path d="M200.441 215.94C200.278 216.762 200.053 218.505 200.454 218.896C200.855 219.287 201.443 216.918 200.441 215.94Z" fill="#F2C8A9"/>
<path d="M221.367 211.381C221.038 212.16 220.479 213.833 220.876 214.296C221.273 214.759 222.36 212.538 221.367 211.381Z" fill="#F2C8A9"/>
<path d="M151.352 205.854L157.511 205.288L157.052 208.253L151.352 205.854Z" fill="#F2C8A9"/>
<path d="M155.007 217.782L159.599 216.247L159.612 219.247L155.007 217.782Z" fill="#F2C8A9"/>
<path d="M168.47 204.415L174.047 203.791L173.548 206.749L168.47 204.415Z" fill="#F2C8A9"/>
<path d="M153.405 205.666L151.352 205.854L153.252 206.654L153.405 205.666Z" fill="#DF96B9"/>
<path d="M156.537 217.27L155.007 217.782L156.542 218.27L156.537 217.27Z" fill="#F09756"/>
<path d="M170.329 204.207L168.469 204.415L170.162 205.193L170.329 204.207Z" fill="#BE0B61"/>
</svg>
