<svg width="554" height="470" viewBox="0 0 554 470" fill="none" xmlns="http://www.w3.org/2000/svg">
<path d="M317 395.507C310.5 360.007 306 329.973 314.5 299.973" stroke="white" stroke-width="0.5"/>
<path d="M346 48.0071C344.5 70.0071 329.5 89.9729 329.5 89.9729C329.5 89.9729 329.5 100.973 333 104.973C336.5 108.973 325.177 125.078 342.5 144.473C359.5 163.507 361.448 179.157 368.5 181.507C376 184.007 387 183.973 409.5 170.973C432.228 157.841 429 148.473 430.5 144.473" stroke="white" stroke-width="0.5"/>
<path d="M346 48.5071C354.5 88.0071 418 101.007 418 101.007C418 101.007 423.143 108.309 426.5 117.541C430.5 128.541 438.229 143.507 412 194.507C394 229.507 468.5 261.973 427.5 311.973C419 321.973 430.5 340.973 446.5 345.473" stroke="white" stroke-width="0.5"/>
<path d="M364.5 13.4729C356 14.6396 337.4 21.4729 331 39.4729C327.084 50.488 318.553 76.2075 314 93.5071C311.5 103.007 323.5 101.041 323.5 125.007C323.5 156.011 339 183.973 335 207.473C331 230.973 310 260.473 310 282.473" stroke="white" stroke-width="0.5"/>
<path d="M364 12.9733C372.333 5.97325 395.2 -5.32675 420 5.47325C451 18.9733 465.5 45.9731 470 90.4731C474.5 134.973 467.5 139.973 475.5 159.473C483.5 178.973 472 201.473 466.5 213.473C461 225.473 495 256.973 468.5 297.973C456.543 316.473 454 324.64 456 329.473C452 325.306 442.5 325.673 444.5 316.473C436.667 323.973 436.5 329.473 446.5 345.473" stroke="white" stroke-width="0.5"/>
<path d="M482.5 179.973C518 192.473 527.5 184.473 539.5 200.973C551.5 217.473 553.5 237.473 553 263.473C552.5 289.473 546.5 318.473 543 330.973C539.5 343.473 524 398.973 524.5 409.973C525 420.973 518.5 436.473 510.5 439.473C502.5 442.473 508 446.473 497.5 447.973C487 449.473 475.5 443.973 465.5 445.973C457.5 447.573 403.5 447.973 377.5 447.973" stroke="white" stroke-width="0.5"/>
<path d="M516.5 210.973C514.5 211.473 500 226.973 494.5 239.473C489 251.973 490 250.973 482.5 270.473C475 289.973 469.5 293.473 471 305.473C472.2 315.073 471.5 315.806 471 314.973" stroke="white" stroke-width="0.5"/>
<path d="M505.5 250.473C496 269.973 479.5 303.973 471 317.473C462.5 330.973 456 344.473 459.5 352.473C463 360.473 452 368.973 452.5 387.473" stroke="white" stroke-width="0.5"/>
<path d="M504 383.973C489 379.973 477.5 369.973 467.5 379.473C457.5 388.973 456 382.473 452 390.473C449.5 393.473 444.5 389.973 442 391.973C439.5 393.973 442.5 396.973 432 396.473C421.5 395.973 320 396.973 314.5 394.973C309 392.973 308.5 391.473 306 393.473C312.333 396.473 324.9 405.473 324.5 417.473C324 432.473 322.5 435.973 316 437.473C314.8 437.9 315.167 438.34 315.5 438.507" stroke="white" stroke-width="0.5"/>
<path d="M178.5 308.973L1.5 281.473C18.1667 325.973 59.5 424.007 64.5 427.473C76.3576 435.692 187.5 459.64 242.5 469.473L178.5 308.973Z" stroke="white" stroke-width="0.5"/>
<path d="M1.5 281.007C1.11782 282.536 1.02776 277.91 1.00654 275.645C1.00077 275.029 1.55175 274.562 2.15993 274.661L180 303.473" stroke="white" stroke-width="0.5"/>
<path d="M180 303.473L241.5 455.973" stroke="white" stroke-width="0.5"/>
<path d="M243 469.473C250.5 469.973 253.5 468.973 297.5 464.473C341.5 459.973 375.5 453.973 376.5 452.973C377.5 451.973 379 442.973 376.5 441.973C374.5 441.173 286.667 436.973 243 434.973" stroke="white" stroke-width="0.5"/>
<path d="M332.5 182.473C308 189.473 307.5 220.473 298 238.973C288.5 257.473 274.5 286.473 265 302.973C256.5 316.973 255.5 330.473 250.5 336.973C245.5 343.473 251.5 344.973 243.5 350.473C235.5 355.973 217 371.973 216.5 373.473C216 374.973 234.5 378.473 241 398.973" stroke="white" stroke-width="0.5"/>
<path d="M355.5 162.507C359.5 189.507 353 176.473 360.5 212.973C368 249.473 342 257.973 339 276.973C336 295.973 333.5 324.473 304.5 316.473C309.833 316.473 320.2 313.573 319 301.973C317.5 287.473 313 283.473 319 271.973C316 273.14 310 276.773 310 281.973" stroke="white" stroke-width="0.5"/>
<path d="M471.5 132.973C478.5 174.473 494 178.973 493.5 183.473" stroke="white" stroke-width="0.5"/>
<path d="M359 169.507C358 176.507 362.44 185.473 385.001 185.473C396.501 185.473 414.834 182.674 419.001 180.507" stroke="white" stroke-width="0.5"/>
<path d="M359 170.007C356 193.507 367.42 196.473 393.5 196.473C406.5 196.473 409.999 194.507 412.499 193.007" stroke="white" stroke-width="0.5"/>
<path d="M368 192.973C366.5 202.473 364 207.973 368 211.973C372 215.973 384.5 228.507 412.5 220.007" stroke="white" stroke-width="0.5"/>
<path d="M365.5 206.473C363.5 212.073 361.333 214.14 360.5 214.473" stroke="white" stroke-width="0.5"/>
<path d="M303.5 393.007C311 387.007 314 382.007 313.5 375.007M248 342.507C252.5 345.507 272.5 345.007 281.5 358.007" stroke="white" stroke-width="0.5"/>
<path d="M317.5 437.007C302 430.507 297.5 423.507 293.5 422.007C289.5 420.507 279 425.007 274 427.007C269 429.007 253.5 430.007 250.5 426.507C246 431.34 236.3 439.907 233.5 435.507" stroke="white" stroke-width="0.5"/>
<path d="M306 393.507C293.5 391.007 287.5 381.007 281 381.507C274.5 382.007 274.5 382.007 273 382.507C271.5 383.007 268.5 380.507 263.5 382.507C259.5 384.107 236.5 405.174 225.5 415.507" stroke="white" stroke-width="0.5"/>
<path d="M216.5 374.007C214.1 374.007 210.5 374.34 209 374.507" stroke="white" stroke-width="0.5"/>
<path d="M312 446.507L241 456.007L235.5 441.007L312 446.507Z" stroke="white" stroke-width="0.5"/>
<path d="M380 182.507C380.167 182.674 380.5 183.407 380.5 185.007" stroke="white" stroke-width="0.5"/>
<path d="M377 442.507L316 454.007" stroke="white" stroke-width="0.5"/>
</svg>
