<svg width="255" height="38" viewBox="0 0 294 48" fill="none" xmlns="http://www.w3.org/2000/svg">
<path d="M16.4185 36.3937L0 29.8263V27.3352L16.4185 20.7678V23.1079L0.981336 29.1846V27.9768L16.4185 34.0535V36.3937Z" fill="#B8B8B8"/>
<path d="M23.3711 41.791V15.3704H26.1641V39.3754H40.9597V41.791H23.3711ZM57.4487 41.791V37.4127L57.3354 36.6956V29.3733C57.3354 27.6874 56.8574 26.3916 55.9012 25.4857C54.9702 24.5799 53.5737 24.1269 51.7116 24.1269C50.4283 24.1269 49.208 24.3408 48.0505 24.7686C46.893 25.1963 45.9117 25.7625 45.1065 26.467L43.8987 24.4666C44.9052 23.6111 46.113 22.9569 47.5221 22.504C48.9312 22.0258 50.4158 21.7868 51.9758 21.7868C54.5424 21.7868 56.5177 22.4285 57.9016 23.7118C59.3107 24.9699 60.0152 26.8948 60.0152 29.4865V41.791H57.4487ZM50.617 41.9797C49.1325 41.9797 47.8366 41.7407 46.7294 41.2626C45.6475 40.7594 44.8171 40.08 44.2384 39.2244C43.6596 38.3438 43.3703 37.3372 43.3703 36.2049C43.3703 35.1733 43.6093 34.2422 44.0874 33.4119C44.5907 32.5563 45.3959 31.877 46.503 31.3737C47.6353 30.8453 49.145 30.5811 51.0322 30.5811H57.8638V32.5815H51.1077C49.1954 32.5815 47.8618 32.9212 47.1069 33.6006C46.3772 34.28 46.0123 35.1229 46.0123 36.1294C46.0123 37.2617 46.4527 38.1676 47.3333 38.847C48.2141 39.5264 49.447 39.8661 51.0322 39.8661C52.542 39.8661 53.8379 39.5264 54.9198 38.847C56.027 38.1424 56.8322 37.136 57.3354 35.8275L57.9393 37.6769C57.4361 38.9854 56.5554 40.0296 55.2973 40.8097C54.0643 41.5897 52.5042 41.9797 50.617 41.9797ZM67.2939 41.791V21.9755H69.8606V27.3729L69.5964 26.4293C70.1502 24.9196 71.0807 23.7747 72.3894 22.9946C73.6981 22.1894 75.3211 21.7868 77.2583 21.7868V24.3911C77.1575 24.3911 77.0573 24.3911 76.9564 24.3911C76.8555 24.366 76.7553 24.3534 76.6544 24.3534C74.5662 24.3534 72.9302 24.995 71.7478 26.2783C70.5653 27.5364 69.9738 29.3356 69.9738 31.6757V41.791H67.2939ZM93.0915 41.791V37.4127L92.9783 36.6956V29.3733C92.9783 27.6874 92.4999 26.3916 91.544 25.4857C90.6127 24.5799 89.2162 24.1269 87.3544 24.1269C86.0711 24.1269 84.851 24.3408 83.6933 24.7686C82.5356 25.1963 81.5543 25.7625 80.7493 26.467L79.5415 24.4666C80.5482 23.6111 81.756 22.9569 83.1649 22.504C84.5738 22.0258 86.0588 21.7868 87.6186 21.7868C90.1852 21.7868 92.1602 22.4285 93.5444 23.7118C94.9533 24.9699 95.6581 26.8948 95.6581 29.4865V41.791H93.0915ZM86.2599 41.9797C84.7755 41.9797 83.4792 41.7407 82.3723 41.2626C81.2901 40.7594 80.4597 40.08 79.8812 39.2244C79.3027 38.3438 79.0131 37.3372 79.0131 36.2049C79.0131 35.1733 79.2519 34.2422 79.7302 33.4119C80.2332 32.5563 81.0389 31.877 82.1458 31.3737C83.2781 30.8453 84.7879 30.5811 86.675 30.5811H93.5067V32.5815H86.7505C84.838 32.5815 83.5046 32.9212 82.7497 33.6006C82.0202 34.28 81.6551 35.1229 81.6551 36.1294C81.6551 37.2617 82.0957 38.1676 82.9762 38.847C83.8566 39.5264 85.0898 39.8661 86.675 39.8661C88.1848 39.8661 89.4804 39.5264 90.5627 38.847C91.6696 38.1424 92.4752 37.136 92.9783 35.8275L93.5821 37.6769C93.0791 38.9854 92.198 40.0296 90.9401 40.8097C89.7069 41.5897 88.1471 41.9797 86.2599 41.9797ZM115.09 42.0175C113.077 42.0175 111.215 41.6903 109.504 41.0361C107.818 40.3567 106.346 39.4131 105.088 38.2053C103.855 36.9975 102.886 35.5758 102.182 33.9403C101.502 32.3048 101.162 30.5182 101.162 28.5807C101.162 26.6432 101.502 24.8566 102.182 23.2211C102.886 21.5855 103.868 20.1638 105.126 18.956C106.384 17.7482 107.856 16.8172 109.542 16.163C111.253 15.4836 113.115 15.1439 115.128 15.1439C117.141 15.1439 118.977 15.4584 120.638 16.0875C122.324 16.7166 123.759 17.6728 124.941 18.956L123.205 20.73C122.098 19.6229 120.878 18.8303 119.544 18.3521C118.21 17.874 116.776 17.635 115.241 17.635C113.606 17.635 112.096 17.9118 110.712 18.4654C109.353 18.9938 108.158 19.7612 107.126 20.7677C106.12 21.7491 105.327 22.9066 104.748 24.2402C104.195 25.5486 103.918 26.9955 103.918 28.5807C103.918 30.1407 104.195 31.5876 104.748 32.9212C105.327 34.2548 106.12 35.4249 107.126 36.4314C108.158 37.4127 109.353 38.1801 110.712 38.7337C112.096 39.2622 113.593 39.5264 115.203 39.5264C116.713 39.5264 118.135 39.2999 119.468 38.847C120.827 38.3941 122.072 37.6266 123.205 36.5446L124.79 38.6583C123.532 39.7654 122.06 40.6084 120.374 41.1871C118.689 41.7407 116.927 42.0175 115.09 42.0175ZM122.11 38.3186V28.5807H124.79V38.6583L122.11 38.3186ZM140.206 41.9797C138.294 41.9797 136.57 41.552 135.035 40.6964C133.525 39.8158 132.331 38.6205 131.449 37.1108C130.569 35.5758 130.128 33.8271 130.128 31.8644C130.128 29.8765 130.569 28.1278 131.449 26.618C132.331 25.1083 133.525 23.9257 135.035 23.0701C136.545 22.2146 138.269 21.7868 140.206 21.7868C142.169 21.7868 143.905 22.2146 145.415 23.0701C146.95 23.9257 148.145 25.1083 149 26.618C149.881 28.1278 150.321 29.8765 150.321 31.8644C150.321 33.8271 149.881 35.5758 149 37.1108C148.145 38.6205 146.95 39.8158 145.415 40.6964C143.88 41.552 142.144 41.9797 140.206 41.9797ZM140.206 39.6019C141.64 39.6019 142.911 39.2873 144.018 38.6583C145.126 38.0041 145.994 37.0982 146.622 35.9407C147.277 34.7581 147.604 33.3993 147.604 31.8644C147.604 30.3043 147.277 28.9456 146.622 27.7881C145.994 26.6306 145.126 25.7374 144.018 25.1083C142.911 24.4541 141.653 24.1269 140.244 24.1269C138.835 24.1269 137.577 24.4541 136.469 25.1083C135.362 25.7374 134.482 26.6306 133.827 27.7881C133.173 28.9456 132.846 30.3043 132.846 31.8644C132.846 33.3993 133.173 34.7581 133.827 35.9407C134.482 37.0982 135.362 38.0041 136.469 38.6583C137.577 39.2873 138.822 39.6019 140.206 39.6019ZM165.908 21.7868C167.518 21.7868 168.928 22.1013 170.135 22.7304C171.368 23.3343 172.324 24.2653 173.004 25.5234C173.708 26.7815 174.061 28.3668 174.061 30.2792V41.791H171.381V30.5434C171.381 28.4549 170.852 26.8822 169.796 25.8254C168.763 24.7434 167.305 24.2024 165.417 24.2024C164.008 24.2024 162.775 24.4918 161.718 25.0705C160.686 25.6241 159.881 26.4419 159.303 27.5239C158.749 28.5807 158.472 29.864 158.472 31.3737V41.791H155.793V21.9755H158.359V27.4106L157.944 26.3916C158.573 24.9573 159.579 23.8375 160.964 23.0324C162.347 22.202 163.995 21.7868 165.908 21.7868ZM189.527 41.9797C187.565 41.9797 185.803 41.552 184.243 40.6964C182.708 39.8158 181.5 38.6205 180.62 37.1108C179.739 35.5758 179.299 33.8271 179.299 31.8644C179.299 29.8765 179.739 28.1278 180.62 26.618C181.5 25.1083 182.708 23.9257 184.243 23.0701C185.803 22.2146 187.565 21.7868 189.527 21.7868C191.213 21.7868 192.736 22.114 194.094 22.7682C195.453 23.4224 196.522 24.4037 197.303 25.7122L195.302 27.0709C194.623 26.0644 193.779 25.3222 192.773 24.8441C191.767 24.366 190.672 24.1269 189.49 24.1269C188.08 24.1269 186.81 24.4541 185.677 25.1083C184.545 25.7374 183.652 26.6306 182.998 27.7881C182.343 28.9456 182.016 30.3043 182.016 31.8644C182.016 33.4244 182.343 34.7832 182.998 35.9407C183.652 37.0982 184.545 38.0041 185.677 38.6583C186.81 39.2873 188.08 39.6019 189.49 39.6019C190.672 39.6019 191.767 39.3628 192.773 38.8847C193.779 38.4066 194.623 37.6769 195.302 36.6956L197.303 38.0544C196.522 39.3376 195.453 40.319 194.094 40.9984C192.736 41.6526 191.213 41.9797 189.527 41.9797ZM214.984 41.791V37.4127L214.871 36.6956V29.3733C214.871 27.6874 214.393 26.3916 213.437 25.4857C212.506 24.5799 211.109 24.1269 209.247 24.1269C207.964 24.1269 206.744 24.3408 205.586 24.7686C204.429 25.1963 203.447 25.7625 202.642 26.467L201.434 24.4666C202.441 23.6111 203.649 22.9569 205.058 22.504C206.467 22.0258 207.952 21.7868 209.512 21.7868C212.078 21.7868 214.053 22.4285 215.437 23.7118C216.846 24.9699 217.551 26.8948 217.551 29.4865V41.791H214.984ZM208.153 41.9797C206.668 41.9797 205.372 41.7407 204.265 41.2626C203.183 40.7594 202.353 40.08 201.774 39.2244C201.196 38.3438 200.906 37.3372 200.906 36.2049C200.906 35.1733 201.145 34.2422 201.623 33.4119C202.126 32.5563 202.932 31.877 204.039 31.3737C205.171 30.8453 206.681 30.5811 208.568 30.5811H215.4V32.5815H208.644C206.731 32.5815 205.398 32.9212 204.643 33.6006C203.913 34.28 203.548 35.1229 203.548 36.1294C203.548 37.2617 203.989 38.1676 204.869 38.847C205.75 39.5264 206.983 39.8661 208.568 39.8661C210.078 39.8661 211.373 39.5264 212.456 38.847C213.563 38.1424 214.368 37.136 214.871 35.8275L215.475 37.6769C214.972 38.9854 214.091 40.0296 212.833 40.8097C211.6 41.5897 210.04 41.9797 208.153 41.9797ZM224.829 41.791V13.7852H227.509V41.791H224.829ZM240.061 41.791L231.267 21.9755H234.06L242.137 40.3567H240.816L249.007 21.9755H251.649L242.817 41.791H240.061ZM263.287 41.9797C261.223 41.9797 259.412 41.552 257.852 40.6964C256.291 39.8158 255.071 38.6205 254.191 37.1108C253.309 35.5758 252.87 33.8271 252.87 31.8644C252.87 29.9017 253.285 28.1655 254.115 26.6558C254.97 25.146 256.128 23.9634 257.587 23.1079C259.072 22.2272 260.733 21.7868 262.57 21.7868C264.431 21.7868 266.08 22.2146 267.514 23.0701C268.973 23.9005 270.118 25.0831 270.949 26.618C271.779 28.1278 272.194 29.8765 272.194 31.8644C272.194 31.9902 272.181 32.1286 272.157 32.2796C272.157 32.4054 272.157 32.5438 272.157 32.6948H254.908V30.6943H270.722L269.665 31.487C269.665 30.0527 269.35 28.782 268.722 27.6748C268.118 26.5425 267.288 25.6619 266.231 25.0328C265.174 24.4037 263.953 24.0892 262.57 24.0892C261.211 24.0892 259.99 24.4037 258.909 25.0328C257.826 25.6619 256.984 26.5425 256.38 27.6748C255.776 28.8072 255.474 30.103 255.474 31.5624V31.9776C255.474 33.4874 255.8 34.821 256.455 35.9785C257.135 37.1108 258.065 38.0041 259.248 38.6583C260.456 39.2873 261.827 39.6019 263.362 39.6019C264.57 39.6019 265.689 39.3879 266.721 38.9602C267.778 38.5325 268.684 37.8782 269.439 36.9975L270.949 38.7337C270.068 39.7906 268.961 40.5957 267.627 41.1493C266.319 41.7029 264.872 41.9797 263.287 41.9797ZM282.97 41.9797C281.335 41.9797 279.788 41.7532 278.328 41.3003C276.868 40.8222 275.724 40.2309 274.893 39.5264L276.101 37.4127C276.906 38.0166 277.938 38.545 279.196 38.998C280.454 39.4257 281.775 39.6396 283.159 39.6396C285.046 39.6396 286.405 39.3502 287.236 38.7715C288.066 38.1676 288.481 37.375 288.481 36.3936C288.481 35.6639 288.242 35.0978 287.764 34.6952C287.311 34.2674 286.707 33.9529 285.952 33.7516C285.197 33.5251 284.355 33.3364 283.423 33.1854C282.492 33.0344 281.562 32.8583 280.63 32.657C279.725 32.4557 278.894 32.1663 278.139 31.7889C277.384 31.3863 276.768 30.8453 276.29 30.1659C275.837 29.4865 275.61 28.5807 275.61 27.4484C275.61 26.3664 275.912 25.3977 276.516 24.5421C277.12 23.6866 278.001 23.0198 279.158 22.5417C280.341 22.0385 281.775 21.7868 283.461 21.7868C284.744 21.7868 286.028 21.963 287.311 22.3152C288.594 22.6424 289.651 23.0827 290.481 23.6363L289.311 25.7877C288.431 25.1838 287.487 24.756 286.481 24.5044C285.474 24.2276 284.468 24.0892 283.461 24.0892C281.675 24.0892 280.354 24.4037 279.498 25.0328C278.668 25.6367 278.253 26.4167 278.253 27.3729C278.253 28.1278 278.479 28.7191 278.932 29.1468C279.41 29.5746 280.026 29.9143 280.781 30.1659C281.562 30.3924 282.404 30.5811 283.31 30.7321C284.241 30.8831 285.16 31.0718 286.065 31.2982C286.997 31.4995 287.839 31.7889 288.594 32.1663C289.375 32.5186 289.991 33.0344 290.444 33.7138C290.922 34.368 291.161 35.2361 291.161 36.3181C291.161 37.4756 290.834 38.4821 290.18 39.3376C289.55 40.168 288.62 40.8222 287.386 41.3003C286.179 41.7532 284.707 41.9797 282.97 41.9797Z" fill="#44C9B0"/>
</svg>
