<svg width="554" height="470" viewBox="0 0 554 470" fill="none" xmlns="http://www.w3.org/2000/svg">
<path d="M317 395.5C310.5 360 306 329.966 314.5 299.966" stroke="#353535" stroke-width="0.5"/>
<path d="M346 49.0001C346 55.3335 341.5 73.2001 329.5 90.0001C329.5 94.5001 329.5 100 333.5 106C333.5 115 330.5 122.5 334.5 132C337.159 138.316 342 144 347 150C353.359 158.276 359 166.315 359 169.5C359 175 357 179.5 360.5 186.5C364.106 193.711 368.083 193 368 193.5C367.296 197.724 366.593 202.948 365.5 206.5C364.264 210.516 362.592 212.673 361 214C360.232 214.64 365.5 229.5 357.5 244.5C350.962 256.758 348.491 260.147 344.5 264.5C339 270.5 338.387 285.766 335.5 296C332.657 306.078 329.067 313.359 323.5 315.5C317 318 309.333 319.334 305.5 316.5C309 315.5 315.268 314.919 318 309C320.077 304.5 318.5 300 317.5 293.5C316.891 289.545 316.151 286.975 316 284.5C315.662 278.947 317.693 274.882 318.5 272C315.667 273.167 311.557 275.828 310 280.5C309 283.5 311.88 264.448 322.5 242.5C326.832 233.547 331.917 221.814 334 212C335.5 204.933 335.791 190.478 334.5 185.5C331 172 331.5 170 326.5 151C325.787 148.292 324.053 139.686 323.5 131C323.167 125.774 323.699 120.518 323 116.5C322.07 111.157 320.141 107.453 318 104.5C315.52 101.079 312.927 98.5621 314 94.0001C316 85.5001 328.398 46.3311 330.5 39.5001C334.5 26.5001 353 14.5001 364 13.5001C365.5 10.5001 379.5 2.00008 397.5 1.00008C409.185 0.795607 423.481 4.96135 436.5 15.0001C456.521 30.4382 464.512 54 468.5 78C472.926 104.637 471.5 130.841 471.5 133C471.5 136.563 475.951 160.582 487.5 175C488.256 175.944 491.797 179.787 493 181.5C494.05 182.994 492.762 182.889 493.5 183.5C489.333 182.833 481.3 179.8 478.5 177C477.167 183.5 475.741 194.019 469.5 206.5C466 213.5 465.659 217.219 466.5 221C468.455 229.79 475 235 478.5 261.5C481.075 281 467 300.5 460.5 311.5C455.3 320.3 454.5 327 456 329C451 326.5 441.5 323.5 445 316C441.522 318.943 439.067 322.145 439 327.5C438.942 332.153 441.5 338 446 345C438.5 344 418.317 328.868 426 313.5C426.5 312.5 429.222 309.699 430.5 308C435.5 299.5 444 290.375 438 267.5C437.105 264.087 435.765 261.146 434.5 258.5C432.41 254.129 430.183 250.562 428 247C418.5 231.5 405.719 212.342 409.5 201C412 193.5 413.457 192.575 418 182.5C429.5 157 430.5 147 430.5 136C430.5 125 422.5 105 418 101.5C397 96.3335 354.5 82.0001 346 49.0001Z" fill="#555555"/>
<path d="M346 48C344.5 70 329.5 89.9658 329.5 89.9658C329.5 89.9658 329.5 100.966 333 104.966C336.5 108.966 325.177 125.071 342.5 144.466C359.5 163.5 361.448 179.149 368.5 181.5C376 184 387 183.966 409.5 170.966C432.228 157.834 429 148.466 430.5 144.466" stroke="#353535" stroke-width="0.5"/>
<path d="M346 48.5C354.5 88 418 101 418 101C418 101 423.143 108.302 426.5 117.534C430.5 128.534 438.229 143.5 412 194.5C394 229.5 468.5 261.966 427.5 311.966C419 321.966 430.5 340.966 446.5 345.466" stroke="#353535" stroke-width="0.5"/>
<path d="M364.5 13.4658C356 14.6325 337.4 21.4658 331 39.4658C327.084 50.4809 318.553 76.2004 314 93.5C311.5 103 323.5 101.034 323.5 125C323.5 156.004 339 183.966 335 207.466C331 230.966 310 260.466 310 282.466" stroke="#353535" stroke-width="0.5"/>
<path d="M364 12.9662C372.333 5.96617 395.2 -5.33383 420 5.46617C451 18.9662 465.5 45.9661 470 90.4661C474.5 134.966 467.5 139.966 475.5 159.466C483.5 178.966 472 201.466 466.5 213.466C461 225.466 495 256.966 468.5 297.966C456.543 316.466 454 324.633 456 329.466C452 325.299 442.5 325.666 444.5 316.466C436.667 323.966 436.5 329.466 446.5 345.466" stroke="#353535" stroke-width="0.5"/>
<path d="M482.5 179.966C518 192.466 527.5 184.466 539.5 200.966C551.5 217.466 553.5 237.466 553 263.466C552.5 289.466 546.5 318.466 543 330.966C539.5 343.466 524 398.966 524.5 409.966C525 420.966 518.5 436.466 510.5 439.466C502.5 442.466 508 446.466 497.5 447.966C487 449.466 475.5 443.966 465.5 445.966C457.5 447.566 403.5 447.966 377.5 447.966" stroke="#353535" stroke-width="0.5"/>
<path d="M516.5 210.966C514.5 211.466 500 226.966 494.5 239.466C489 251.966 490 250.966 482.5 270.466C475 289.966 469.5 293.466 471 305.466C472.2 315.066 471.5 315.799 471 314.966" stroke="#353535" stroke-width="0.5"/>
<path d="M505.5 250.466C496 269.966 479.5 303.966 471 317.466C462.5 330.966 456 344.466 459.5 352.466C463 360.466 452 368.966 452.5 387.466" stroke="#353535" stroke-width="0.5"/>
<path d="M504 383.966C489 379.966 477.5 369.966 467.5 379.466C457.5 388.966 456 382.466 452 390.466C449.5 393.466 444.5 389.966 442 391.966C439.5 393.966 442.5 396.966 432 396.466C421.5 395.966 320 396.966 314.5 394.966C309 392.966 308.5 391.466 306 393.466C312.333 396.466 324.9 405.466 324.5 417.466C324 432.466 322.5 435.966 316 437.466C314.8 437.893 315.167 438.333 315.5 438.5" stroke="#353535" stroke-width="0.5"/>
<path d="M178.5 308.966L1.5 281.466C18.1667 325.966 59.5 424 64.5 427.466C76.3576 435.685 187.5 459.632 242.5 469.466L178.5 308.966Z" stroke="#353535" stroke-width="0.5"/>
<path d="M1.5 281C1.11782 282.529 1.02776 277.903 1.00654 275.638C1.00077 275.022 1.55175 274.555 2.15993 274.654L180 303.466" stroke="#353535" stroke-width="0.5"/>
<path d="M180 303.466L241.5 455.966" stroke="#353535" stroke-width="0.5"/>
<path d="M243 469.466C250.5 469.966 253.5 468.966 297.5 464.466C341.5 459.966 375.5 453.966 376.5 452.966C377.5 451.966 379 442.966 376.5 441.966C374.5 441.166 286.667 436.966 243 434.966" stroke="#353535" stroke-width="0.5"/>
<path d="M332.5 182.466C308 189.466 307.5 220.466 298 238.966C288.5 257.466 274.5 286.466 265 302.966C256.5 316.966 255.5 330.466 250.5 336.966C245.5 343.466 251.5 344.966 243.5 350.466C235.5 355.966 217 371.966 216.5 373.466C216 374.966 234.5 378.466 241 398.966" stroke="#353535" stroke-width="0.5"/>
<path d="M355.5 162.5C359.5 189.5 353 176.466 360.5 212.966C368 249.466 342 257.966 339 276.966C336 295.966 333.5 324.466 304.5 316.466C309.833 316.466 320.2 313.566 319 301.966C317.5 287.466 313 283.466 319 271.966C316 273.132 310 276.766 310 281.966" stroke="#353535" stroke-width="0.5"/>
<path d="M471.5 132.966C478.5 174.466 494 178.966 493.5 183.466" stroke="#353535" stroke-width="0.5"/>
<path d="M359 169.5C358 176.5 362.44 185.466 385.001 185.466C396.501 185.466 414.834 182.667 419.001 180.5" stroke="#353535" stroke-width="0.5"/>
<path d="M359 170C356 193.5 367.42 196.466 393.5 196.466C406.5 196.466 409.999 194.5 412.499 193" stroke="#353535" stroke-width="0.5"/>
<path d="M368 192.966C366.5 202.466 364 207.966 368 211.966C372 215.966 384.5 228.5 412.5 220" stroke="#353535" stroke-width="0.5"/>
<path d="M365.5 206.466C363.5 212.066 361.333 214.132 360.5 214.466" stroke="#353535" stroke-width="0.5"/>
<path d="M303.5 393C311 387 314 382 313.5 375M248 342.5C252.5 345.5 272.5 345 281.5 358" stroke="#353535" stroke-width="0.5"/>
<path d="M317.5 437C302 430.5 297.5 423.5 293.5 422C289.5 420.5 279 425 274 427C269 429 253.5 430 250.5 426.5C246 431.333 236.3 439.9 233.5 435.5" stroke="#353535" stroke-width="0.5"/>
<path d="M306 393.5C293.5 391 287.5 381 281 381.5C274.5 382 274.5 382 273 382.5C271.5 383 268.5 380.5 263.5 382.5C259.5 384.1 236.5 405.167 225.5 415.5" stroke="#353535" stroke-width="0.5"/>
<path d="M216.5 374C214.1 374 210.5 374.333 209 374.5" stroke="#353535" stroke-width="0.5"/>
<path d="M312 446.5L241 456L235.5 441L312 446.5Z" fill="#555555" stroke="#353535" stroke-width="0.5"/>
<path d="M380 182.5C380.167 182.667 380.5 183.4 380.5 185" stroke="#353535" stroke-width="0.5"/>
<path d="M377 442.5L316 454" stroke="#353535" stroke-width="0.5"/>
</svg>
