<svg width="57" height="66" viewBox="0 0 57 66" fill="none" xmlns="http://www.w3.org/2000/svg">
<g filter="url(#filter0_d_181_59)">
<path d="M4.832 8.472C4.73067 8.36 4.68 8.22933 4.68 8.08C4.68 7.93067 4.73067 7.784 4.832 7.64C5.19467 7.46933 5.58667 7.24 6.008 6.952C6.43467 6.65867 6.792 6.42667 7.08 6.256C7.368 6.08533 7.616 6 7.824 6C8.032 6 8.184 6.19733 8.28 6.592C7.93867 6.72 7.43733 6.984 6.776 7.384C6.12 7.77867 5.74133 8.00267 5.64 8.056C5.74667 8.11467 6.12533 8.34133 6.776 8.736C7.42667 9.12533 7.928 9.38667 8.28 9.52C8.184 9.91467 8.032 10.112 7.824 10.112C7.616 10.112 7.368 10.0267 7.08 9.856C6.792 9.68533 6.43467 9.456 6.008 9.168C5.58667 8.87467 5.19467 8.64267 4.832 8.472ZM10.5449 8.528C10.7209 7.92533 10.9903 7.41867 11.3529 7.008C11.7209 6.592 12.0649 6.384 12.3849 6.384C12.7049 6.384 12.9316 6.48267 13.0649 6.68C13.1983 6.872 13.2649 7.136 13.2649 7.472C13.2649 7.80267 13.2116 8.26933 13.1049 8.872C13.0036 9.47467 12.9529 9.91467 12.9529 10.192C12.9529 10.464 12.9876 10.664 13.0569 10.792C13.1263 10.9147 13.2436 11.0213 13.4089 11.112C13.3396 11.1173 13.2409 11.12 13.1129 11.12C12.7716 11.12 12.5183 11.0507 12.3529 10.912C12.1929 10.768 12.1129 10.5253 12.1129 10.184C12.1129 9.98667 12.1663 9.58933 12.2729 8.992C12.3796 8.38933 12.4329 7.94667 12.4329 7.664C12.4329 7.312 12.3103 7.136 12.0649 7.136C11.9209 7.136 11.7609 7.21333 11.5849 7.368C11.4089 7.51733 11.2383 7.72267 11.0729 7.984C10.9129 8.24 10.7769 8.568 10.6649 8.968C10.5583 9.36267 10.5049 9.75467 10.5049 10.144C10.5049 10.528 10.5209 10.8133 10.5529 11C10.4249 11.0107 10.3529 11.016 10.3369 11.016C10.0863 11.016 9.8996 10.9627 9.77694 10.856C9.6596 10.7493 9.60094 10.584 9.60094 10.36C9.60094 10.1307 9.64894 9.69333 9.74494 9.048C10.0276 7.064 10.1689 5.55733 10.1689 4.528C10.1689 4.064 10.1369 3.752 10.0729 3.592C10.3823 3.704 10.5983 3.86933 10.7209 4.088C10.8489 4.30667 10.9129 4.608 10.9129 4.992C10.9129 5.25867 10.8596 5.81867 10.7529 6.672C10.6516 7.52533 10.5823 8.144 10.5449 8.528ZM17.0977 6.616C17.0977 6.84 17.055 6.99467 16.9697 7.08C16.8844 7.16533 16.759 7.208 16.5937 7.208H16.0177C15.9964 7.34667 15.9404 7.67733 15.8497 8.2C15.6684 9.192 15.5777 9.94133 15.5777 10.448C15.5777 10.9547 15.615 11.2907 15.6897 11.456C15.3857 11.344 15.1697 11.176 15.0417 10.952C14.9137 10.7227 14.8497 10.4453 14.8497 10.12C14.8497 9.79467 14.8684 9.488 14.9057 9.2C14.9484 8.90667 15.007 8.56533 15.0817 8.176C15.1564 7.78667 15.2097 7.47467 15.2417 7.24C14.9377 7.28267 14.639 7.368 14.3457 7.496C14.335 7.41067 14.3297 7.33333 14.3297 7.264C14.3297 7.008 14.415 6.83733 14.5857 6.752C14.7564 6.66133 15.0017 6.616 15.3217 6.616C15.359 6.22133 15.3777 5.928 15.3777 5.736C15.3777 5.53867 15.375 5.38133 15.3697 5.264C15.3697 5.14667 15.3697 5.05867 15.3697 5C15.615 5.03733 15.8044 5.14667 15.9377 5.328C16.071 5.504 16.1377 5.74667 16.1377 6.056C16.1377 6.216 16.1244 6.41067 16.0977 6.64C16.5617 6.64 16.8897 6.56267 17.0817 6.408C17.0924 6.48267 17.0977 6.552 17.0977 6.616ZM21.4076 7.968C21.269 8.21867 21.1516 8.53867 21.0556 8.928C20.9596 9.31733 20.9116 9.68533 20.9116 10.032C20.9116 10.3787 20.9276 10.7013 20.9596 11C20.821 11.0107 20.7383 11.016 20.7116 11.016C20.2476 11.016 20.0156 10.7893 20.0156 10.336C20.0156 10.1707 20.0716 9.76 20.1836 9.104C20.301 8.448 20.3596 7.95733 20.3596 7.632C20.3596 7.30133 20.237 7.136 19.9916 7.136C19.6876 7.136 19.3783 7.42933 19.0636 8.016C18.749 8.60267 18.5916 9.31467 18.5916 10.152C18.5916 10.4187 18.6076 10.7013 18.6396 11C18.501 11.0107 18.4183 11.016 18.3916 11.016C17.9276 11.016 17.6956 10.7893 17.6956 10.336C17.6956 10.2773 17.749 9.88 17.8556 9.144C17.9676 8.408 18.0236 7.82667 18.0236 7.4C18.0236 6.968 17.9783 6.57333 17.8876 6.216C18.2076 6.33867 18.429 6.51467 18.5516 6.744C18.6796 6.97333 18.7436 7.256 18.7436 7.592C18.7436 7.76267 18.725 7.97867 18.6876 8.24C18.869 7.70667 19.1196 7.264 19.4396 6.912C19.7596 6.56 20.053 6.384 20.3196 6.384C20.917 6.384 21.2156 6.84533 21.2156 7.768C21.413 7.34133 21.6396 7.00533 21.8956 6.76C22.157 6.50933 22.3996 6.384 22.6236 6.384C22.949 6.384 23.1783 6.48267 23.3116 6.68C23.445 6.872 23.5116 7.136 23.5116 7.472C23.5116 7.80267 23.4583 8.26933 23.3516 8.872C23.2503 9.47467 23.1996 9.91467 23.1996 10.192C23.1996 10.464 23.2343 10.664 23.3036 10.792C23.373 10.9147 23.4903 11.0213 23.6556 11.112C23.5863 11.1173 23.4876 11.12 23.3596 11.12C23.0183 11.12 22.765 11.0507 22.5996 10.912C22.4396 10.768 22.3596 10.5253 22.3596 10.184C22.3596 9.98667 22.413 9.58933 22.5196 8.992C22.6263 8.38933 22.6796 7.94667 22.6796 7.664C22.6796 7.312 22.557 7.136 22.3116 7.136C22.173 7.136 22.0236 7.21067 21.8636 7.36C21.7036 7.50933 21.5516 7.712 21.4076 7.968ZM24.8279 10.416C24.8225 10.3307 24.8199 10.1947 24.8199 10.008C24.8199 9.816 24.9079 9.00533 25.0839 7.576C25.2652 6.14667 25.3559 5.16533 25.3559 4.632C25.3559 4.09867 25.3239 3.752 25.2599 3.592C25.5585 3.704 25.7692 3.86933 25.8919 4.088C26.0145 4.30667 26.0759 4.57067 26.0759 4.88C26.0759 5.18933 25.9985 5.98933 25.8439 7.28C25.6892 8.57067 25.6119 9.61067 25.6119 10.4C25.6119 10.5707 25.6225 10.8107 25.6439 11.12C25.3505 11.0987 25.1425 11.0293 25.0199 10.912C24.9185 10.816 24.8545 10.6507 24.8279 10.416ZM30.6905 7.64C30.7918 7.752 30.8425 7.88267 30.8425 8.032C30.8425 8.18133 30.7918 8.328 30.6905 8.472C30.3278 8.64267 29.9332 8.87467 29.5065 9.168C29.0852 9.456 28.7305 9.68533 28.4425 9.856C28.1545 10.0267 27.9065 10.112 27.6985 10.112C27.4905 10.112 27.3385 9.91467 27.2425 9.52C27.5838 9.392 28.0825 9.13067 28.7385 8.736C29.3998 8.336 29.7812 8.10933 29.8825 8.056C29.7758 7.99733 29.3972 7.77333 28.7465 7.384C28.0958 6.98933 27.5945 6.72533 27.2425 6.592C27.3385 6.19733 27.4905 6 27.6985 6C27.9065 6 28.1545 6.08533 28.4425 6.256C28.7305 6.42667 29.0852 6.65867 29.5065 6.952C29.9332 7.24 30.3278 7.46933 30.6905 7.64ZM15.3945 20.472C15.2932 20.36 15.2425 20.2293 15.2425 20.08C15.2425 19.9307 15.2932 19.784 15.3945 19.64C15.7572 19.4693 16.1492 19.24 16.5705 18.952C16.9972 18.6587 17.3545 18.4267 17.6425 18.256C17.9305 18.0853 18.1785 18 18.3865 18C18.5945 18 18.7465 18.1973 18.8425 18.592C18.5012 18.72 17.9998 18.984 17.3385 19.384C16.6825 19.7787 16.3038 20.0027 16.2025 20.056C16.3092 20.1147 16.6878 20.3413 17.3385 20.736C17.9892 21.1253 18.4905 21.3867 18.8425 21.52C18.7465 21.9147 18.5945 22.112 18.3865 22.112C18.1785 22.112 17.9305 22.0267 17.6425 21.856C17.3545 21.6853 16.9972 21.456 16.5705 21.168C16.1492 20.8747 15.7572 20.6427 15.3945 20.472ZM21.5874 16.888C21.5874 17.128 21.5341 17.6267 21.4274 18.384C21.3261 19.1413 21.2568 19.728 21.2194 20.144C21.3741 19.584 21.5954 19.152 21.8834 18.848C22.1768 18.5387 22.4941 18.384 22.8354 18.384C23.1768 18.384 23.4701 18.5467 23.7154 18.872C23.9608 19.1973 24.0834 19.6133 24.0834 20.12C24.0834 20.9147 23.8861 21.584 23.4914 22.128C23.1021 22.672 22.6221 22.944 22.0514 22.944C21.8968 22.944 21.7394 22.92 21.5794 22.872C21.9208 22.7867 22.2194 22.5893 22.4754 22.28C22.7368 21.9653 22.9261 21.6267 23.0434 21.264C23.1608 20.896 23.2194 20.5547 23.2194 20.24C23.2194 19.9253 23.1634 19.664 23.0514 19.456C22.9394 19.2427 22.7661 19.136 22.5314 19.136C22.2968 19.136 22.0674 19.2747 21.8434 19.552C21.6248 19.8293 21.4434 20.1947 21.2994 20.648C21.1608 21.1013 21.0914 21.544 21.0914 21.976C21.0914 22.4027 21.1421 22.792 21.2434 23.144C20.9608 23.0533 20.7368 22.8613 20.5714 22.568C20.4114 22.2747 20.3314 21.928 20.3314 21.528C20.3314 21.1227 20.4194 20.3467 20.5954 19.2C20.7768 18.0533 20.8674 17.216 20.8674 16.688C20.8674 16.16 20.8434 15.712 20.7954 15.344C21.3234 15.536 21.5874 16.0507 21.5874 16.888ZM28.2804 20.376C28.2804 19.8533 28.2138 19.48 28.0804 19.256C27.9524 19.0267 27.7658 18.912 27.5204 18.912C27.2804 18.912 27.0378 19.032 26.7924 19.272C26.5471 19.5067 26.3524 19.8 26.2084 20.152C26.0698 20.4987 26.0004 20.8613 26.0004 21.24C26.0004 21.6133 26.0724 21.9387 26.2164 22.216C26.3604 22.488 26.5791 22.624 26.8724 22.624C27.2884 22.624 27.6271 22.3787 27.8884 21.888C28.1498 21.3973 28.2804 20.8933 28.2804 20.376ZM25.9604 20.064C26.1631 19.488 26.4351 19.0693 26.7764 18.808C27.1231 18.5413 27.4724 18.408 27.8244 18.408C28.1818 18.408 28.4778 18.5653 28.7124 18.88C28.9471 19.1893 29.0644 19.6107 29.0644 20.144C29.0644 20.7307 28.9524 21.2747 28.7284 21.776C28.4778 22.3307 28.1151 22.7173 27.6404 22.936C27.3844 23.0587 27.1018 23.12 26.7924 23.12C26.3604 23.12 25.9818 22.9413 25.6564 22.584C25.3311 22.2213 25.1684 21.7067 25.1684 21.04C25.1684 20.368 25.3124 19.7867 25.6004 19.296C25.8884 18.8053 26.2804 18.464 26.7764 18.272C26.8831 18.272 26.9364 18.3253 26.9364 18.432C26.4084 18.7787 26.0831 19.3227 25.9604 20.064ZM30.8579 21.384C30.8579 21.688 30.9166 21.936 31.0339 22.128C31.1513 22.32 31.3326 22.416 31.5779 22.416C31.8286 22.416 32.0553 22.3067 32.2579 22.088C32.4659 21.864 32.6313 21.5653 32.7539 21.192C32.8819 20.8133 32.9913 20.4133 33.0819 19.992C33.1779 19.5653 33.2473 19.112 33.2899 18.632C33.3699 17.7413 33.4099 17.0347 33.4099 16.512C33.4099 15.9893 33.3886 15.6 33.3459 15.344C33.8953 15.52 34.1699 16.072 34.1699 17C34.1699 17.3787 34.0793 18.1413 33.8979 19.288C33.7219 20.4347 33.6339 21.272 33.6339 21.8C33.6339 22.328 33.6579 22.776 33.7059 23.144C33.4019 23.0427 33.1939 22.8613 33.0819 22.6C32.9699 22.3387 32.9139 22.0053 32.9139 21.6C32.7486 22.0587 32.5033 22.4213 32.1779 22.688C31.8526 22.9547 31.5139 23.088 31.1619 23.088C30.8153 23.088 30.5326 22.9547 30.3139 22.688C30.1006 22.416 29.9939 22.0187 29.9939 21.496C29.9939 20.6267 30.2206 19.912 30.6739 19.352C31.1326 18.792 31.7006 18.512 32.3779 18.512C32.5699 18.512 32.7753 18.5413 32.9939 18.6C32.6313 18.6587 32.3059 18.792 32.0179 19C31.7299 19.2027 31.5059 19.4427 31.3459 19.72C31.0206 20.2853 30.8579 20.84 30.8579 21.384ZM38.4836 18.936C38.4836 19.1227 38.4036 19.3813 38.2436 19.712C38.0836 20.0427 37.889 20.4053 37.6596 20.8C37.4303 21.1947 37.201 21.616 36.9716 22.064C36.7423 22.5067 36.5476 22.992 36.3876 23.52C36.2276 24.0533 36.1476 24.5627 36.1476 25.048C36.1476 25.288 36.1663 25.5173 36.2036 25.736C35.8623 25.656 35.6303 25.536 35.5076 25.376C35.3903 25.2213 35.3316 25.0373 35.3316 24.824C35.3316 24.52 35.5183 23.9413 35.8916 23.088C35.8116 22.7573 35.713 22.24 35.5956 21.536C35.4783 20.8267 35.3583 20.2107 35.2356 19.688C35.1183 19.1653 34.9823 18.776 34.8276 18.52C35.0303 18.3813 35.2036 18.312 35.3476 18.312C35.625 18.312 35.8143 18.456 35.9156 18.744C36.017 19.0267 36.105 19.5707 36.1796 20.376C36.2596 21.1813 36.3396 21.7733 36.4196 22.152C37.465 20.184 37.9876 18.8693 37.9876 18.208C38.3183 18.432 38.4836 18.6747 38.4836 18.936ZM42.7686 19.64C42.87 19.752 42.9206 19.8827 42.9206 20.032C42.9206 20.1813 42.87 20.328 42.7686 20.472C42.406 20.6427 42.0113 20.8747 41.5846 21.168C41.1633 21.456 40.8086 21.6853 40.5206 21.856C40.2326 22.0267 39.9846 22.112 39.7766 22.112C39.5686 22.112 39.4166 21.9147 39.3206 21.52C39.662 21.392 40.1606 21.1307 40.8166 20.736C41.478 20.336 41.8593 20.1093 41.9606 20.056C41.854 19.9973 41.4753 19.7733 40.8246 19.384C40.174 18.9893 39.6726 18.7253 39.3206 18.592C39.4166 18.1973 39.5686 18 39.7766 18C39.9846 18 40.2326 18.0853 40.5206 18.256C40.8086 18.4267 41.1633 18.6587 41.5846 18.952C42.0113 19.24 42.406 19.4693 42.7686 19.64ZM12.7539 44.472C12.6525 44.36 12.6019 44.2293 12.6019 44.08C12.6019 43.9307 12.6525 43.784 12.7539 43.64C13.1165 43.4693 13.5085 43.24 13.9299 42.952C14.3565 42.6587 14.7139 42.4267 15.0019 42.256C15.2899 42.0853 15.5379 42 15.7459 42C15.9539 42 16.1059 42.1973 16.2019 42.592C15.8605 42.72 15.3592 42.984 14.6979 43.384C14.0419 43.7787 13.6632 44.0027 13.5619 44.056C13.6685 44.1147 14.0472 44.3413 14.6979 44.736C15.3485 45.1253 15.8499 45.3867 16.2019 45.52C16.1059 45.9147 15.9539 46.112 15.7459 46.112C15.5379 46.112 15.2899 46.0267 15.0019 45.856C14.7139 45.6853 14.3565 45.456 13.9299 45.168C13.5085 44.8747 13.1165 44.6427 12.7539 44.472ZM18.9468 40.888C18.9468 41.128 18.8935 41.6267 18.7868 42.384C18.6855 43.1413 18.6161 43.728 18.5788 44.144C18.7335 43.584 18.9548 43.152 19.2428 42.848C19.5361 42.5387 19.8535 42.384 20.1948 42.384C20.5361 42.384 20.8295 42.5467 21.0748 42.872C21.3201 43.1973 21.4428 43.6133 21.4428 44.12C21.4428 44.9147 21.2455 45.584 20.8508 46.128C20.4615 46.672 19.9815 46.944 19.4108 46.944C19.2561 46.944 19.0988 46.92 18.9388 46.872C19.2801 46.7867 19.5788 46.5893 19.8348 46.28C20.0961 45.9653 20.2855 45.6267 20.4028 45.264C20.5201 44.896 20.5788 44.5547 20.5788 44.24C20.5788 43.9253 20.5228 43.664 20.4108 43.456C20.2988 43.2427 20.1255 43.136 19.8908 43.136C19.6561 43.136 19.4268 43.2747 19.2028 43.552C18.9841 43.8293 18.8028 44.1947 18.6588 44.648C18.5201 45.1013 18.4508 45.544 18.4508 45.976C18.4508 46.4027 18.5015 46.792 18.6028 47.144C18.3201 47.0533 18.0961 46.8613 17.9308 46.568C17.7708 46.2747 17.6908 45.928 17.6908 45.528C17.6908 45.1227 17.7788 44.3467 17.9548 43.2C18.1361 42.0533 18.2268 41.216 18.2268 40.688C18.2268 40.16 18.2028 39.712 18.1548 39.344C18.6828 39.536 18.9468 40.0507 18.9468 40.888ZM25.6398 44.376C25.6398 43.8533 25.5731 43.48 25.4398 43.256C25.3118 43.0267 25.1251 42.912 24.8798 42.912C24.6398 42.912 24.3971 43.032 24.1518 43.272C23.9065 43.5067 23.7118 43.8 23.5678 44.152C23.4291 44.4987 23.3598 44.8613 23.3598 45.24C23.3598 45.6133 23.4318 45.9387 23.5758 46.216C23.7198 46.488 23.9385 46.624 24.2318 46.624C24.6478 46.624 24.9865 46.3787 25.2478 45.888C25.5091 45.3973 25.6398 44.8933 25.6398 44.376ZM23.3198 44.064C23.5225 43.488 23.7945 43.0693 24.1358 42.808C24.4825 42.5413 24.8318 42.408 25.1838 42.408C25.5411 42.408 25.8371 42.5653 26.0718 42.88C26.3065 43.1893 26.4238 43.6107 26.4238 44.144C26.4238 44.7307 26.3118 45.2747 26.0878 45.776C25.8371 46.3307 25.4745 46.7173 24.9998 46.936C24.7438 47.0587 24.4611 47.12 24.1518 47.12C23.7198 47.12 23.3411 46.9413 23.0158 46.584C22.6905 46.2213 22.5278 45.7067 22.5278 45.04C22.5278 44.368 22.6718 43.7867 22.9598 43.296C23.2478 42.8053 23.6398 42.464 24.1358 42.272C24.2425 42.272 24.2958 42.3253 24.2958 42.432C23.7678 42.7787 23.4425 43.3227 23.3198 44.064ZM28.2173 45.384C28.2173 45.688 28.276 45.936 28.3933 46.128C28.5106 46.32 28.692 46.416 28.9373 46.416C29.188 46.416 29.4146 46.3067 29.6173 46.088C29.8253 45.864 29.9906 45.5653 30.1133 45.192C30.2413 44.8133 30.3506 44.4133 30.4413 43.992C30.5373 43.5653 30.6066 43.112 30.6493 42.632C30.7293 41.7413 30.7693 41.0347 30.7693 40.512C30.7693 39.9893 30.748 39.6 30.7053 39.344C31.2546 39.52 31.5293 40.072 31.5293 41C31.5293 41.3787 31.4386 42.1413 31.2573 43.288C31.0813 44.4347 30.9933 45.272 30.9933 45.8C30.9933 46.328 31.0173 46.776 31.0653 47.144C30.7613 47.0427 30.5533 46.8613 30.4413 46.6C30.3293 46.3387 30.2733 46.0053 30.2733 45.6C30.108 46.0587 29.8626 46.4213 29.5373 46.688C29.212 46.9547 28.8733 47.088 28.5213 47.088C28.1746 47.088 27.892 46.9547 27.6733 46.688C27.46 46.416 27.3533 46.0187 27.3533 45.496C27.3533 44.6267 27.58 43.912 28.0333 43.352C28.492 42.792 29.06 42.512 29.7373 42.512C29.9293 42.512 30.1346 42.5413 30.3533 42.6C29.9906 42.6587 29.6653 42.792 29.3773 43C29.0893 43.2027 28.8653 43.4427 28.7053 43.72C28.38 44.2853 28.2173 44.84 28.2173 45.384ZM35.843 42.936C35.843 43.1227 35.763 43.3813 35.603 43.712C35.443 44.0427 35.2483 44.4053 35.019 44.8C34.7897 45.1947 34.5603 45.616 34.331 46.064C34.1017 46.5067 33.907 46.992 33.747 47.52C33.587 48.0533 33.507 48.5627 33.507 49.048C33.507 49.288 33.5257 49.5173 33.563 49.736C33.2217 49.656 32.9897 49.536 32.867 49.376C32.7497 49.2213 32.691 49.0373 32.691 48.824C32.691 48.52 32.8777 47.9413 33.251 47.088C33.171 46.7573 33.0723 46.24 32.955 45.536C32.8377 44.8267 32.7177 44.2107 32.595 43.688C32.4777 43.1653 32.3417 42.776 32.187 42.52C32.3897 42.3813 32.563 42.312 32.707 42.312C32.9843 42.312 33.1737 42.456 33.275 42.744C33.3763 43.0267 33.4643 43.5707 33.539 44.376C33.619 45.1813 33.699 45.7733 33.779 46.152C34.8243 44.184 35.347 42.8693 35.347 42.208C35.6777 42.432 35.843 42.6747 35.843 42.936ZM39.016 40.152C39.064 40.1893 39.1227 40.28 39.192 40.424C39.2667 40.5627 39.304 40.7253 39.304 40.912C39.304 41.0933 39.104 41.68 38.704 42.672C38.304 43.664 37.8827 44.7413 37.44 45.904C37.0027 47.0613 36.7467 47.912 36.672 48.456C36.6293 48.456 36.56 48.4347 36.464 48.392C36.368 48.3493 36.2907 48.304 36.232 48.256C36.1733 48.208 36.12 48.1333 36.072 48.032C36.024 47.9307 36 47.816 36 47.688C36 47.448 36.2213 46.816 36.664 45.792C37.1067 44.7627 37.5707 43.6693 38.056 42.512C38.5467 41.3493 38.832 40.5307 38.912 40.056C38.9387 40.0773 38.9733 40.1093 39.016 40.152ZM43.4327 43.64C43.534 43.752 43.5847 43.8827 43.5847 44.032C43.5847 44.1813 43.534 44.328 43.4327 44.472C43.07 44.6427 42.6754 44.8747 42.2487 45.168C41.8274 45.456 41.4727 45.6853 41.1847 45.856C40.8967 46.0267 40.6487 46.112 40.4407 46.112C40.2327 46.112 40.0807 45.9147 39.9847 45.52C40.326 45.392 40.8247 45.1307 41.4807 44.736C42.142 44.336 42.5234 44.1093 42.6247 44.056C42.518 43.9973 42.1394 43.7733 41.4887 43.384C40.838 42.9893 40.3367 42.7253 39.9847 42.592C40.0807 42.1973 40.2327 42 40.4407 42C40.6487 42 40.8967 42.0853 41.1847 42.256C41.4727 42.4267 41.8274 42.6587 42.2487 42.952C42.6754 43.24 43.07 43.4693 43.4327 43.64ZM4.832 56.472C4.73067 56.36 4.68 56.2293 4.68 56.08C4.68 55.9307 4.73067 55.784 4.832 55.64C5.19467 55.4693 5.58667 55.24 6.008 54.952C6.43467 54.6587 6.792 54.4267 7.08 54.256C7.368 54.0853 7.616 54 7.824 54C8.032 54 8.184 54.1973 8.28 54.592C7.93867 54.72 7.43733 54.984 6.776 55.384C6.12 55.7787 5.74133 56.0027 5.64 56.056C5.74667 56.1147 6.12533 56.3413 6.776 56.736C7.42667 57.1253 7.928 57.3867 8.28 57.52C8.184 57.9147 8.032 58.112 7.824 58.112C7.616 58.112 7.368 58.0267 7.08 57.856C6.792 57.6853 6.43467 57.456 6.008 57.168C5.58667 56.8747 5.19467 56.6427 4.832 56.472ZM11.9769 52.152C12.0249 52.1893 12.0836 52.28 12.1529 52.424C12.2276 52.5627 12.2649 52.7253 12.2649 52.912C12.2649 53.0933 12.0649 53.68 11.6649 54.672C11.2649 55.664 10.8436 56.7413 10.4009 57.904C9.9636 59.0613 9.7076 59.912 9.63294 60.456C9.59027 60.456 9.52094 60.4347 9.42494 60.392C9.32894 60.3493 9.2516 60.304 9.19294 60.256C9.13427 60.208 9.08094 60.1333 9.03294 60.032C8.98494 59.9307 8.96094 59.816 8.96094 59.688C8.96094 59.448 9.18227 58.816 9.62494 57.792C10.0676 56.7627 10.5316 55.6693 11.0169 54.512C11.5076 53.3493 11.7929 52.5307 11.8729 52.056C11.8996 52.0773 11.9343 52.1093 11.9769 52.152ZM13.8496 56.528C14.0256 55.9253 14.295 55.4187 14.6576 55.008C15.0256 54.592 15.3696 54.384 15.6896 54.384C16.0096 54.384 16.2363 54.4827 16.3696 54.68C16.503 54.872 16.5696 55.136 16.5696 55.472C16.5696 55.8027 16.5163 56.2693 16.4096 56.872C16.3083 57.4747 16.2576 57.9147 16.2576 58.192C16.2576 58.464 16.2923 58.664 16.3616 58.792C16.431 58.9147 16.5483 59.0213 16.7136 59.112C16.6443 59.1173 16.5456 59.12 16.4176 59.12C16.0763 59.12 15.823 59.0507 15.6576 58.912C15.4976 58.768 15.4176 58.5253 15.4176 58.184C15.4176 57.9867 15.471 57.5893 15.5776 56.992C15.6843 56.3893 15.7376 55.9467 15.7376 55.664C15.7376 55.312 15.615 55.136 15.3696 55.136C15.2256 55.136 15.0656 55.2133 14.8896 55.368C14.7136 55.5173 14.543 55.7227 14.3776 55.984C14.2176 56.24 14.0816 56.568 13.9696 56.968C13.863 57.3627 13.8096 57.7547 13.8096 58.144C13.8096 58.528 13.8256 58.8133 13.8576 59C13.7296 59.0107 13.6576 59.016 13.6416 59.016C13.391 59.016 13.2043 58.9627 13.0816 58.856C12.9643 58.7493 12.9056 58.584 12.9056 58.36C12.9056 58.1307 12.9536 57.6933 13.0496 57.048C13.3323 55.064 13.4736 53.5573 13.4736 52.528C13.4736 52.064 13.4416 51.752 13.3776 51.592C13.687 51.704 13.903 51.8693 14.0256 52.088C14.1536 52.3067 14.2176 52.608 14.2176 52.992C14.2176 53.2587 14.1643 53.8187 14.0576 54.672C13.9563 55.5253 13.887 56.144 13.8496 56.528ZM20.4024 54.616C20.4024 54.84 20.3597 54.9947 20.2744 55.08C20.189 55.1653 20.0637 55.208 19.8984 55.208H19.3224C19.301 55.3467 19.245 55.6773 19.1544 56.2C18.973 57.192 18.8824 57.9413 18.8824 58.448C18.8824 58.9547 18.9197 59.2907 18.9944 59.456C18.6904 59.344 18.4744 59.176 18.3464 58.952C18.2184 58.7227 18.1544 58.4453 18.1544 58.12C18.1544 57.7947 18.173 57.488 18.2104 57.2C18.253 56.9067 18.3117 56.5653 18.3864 56.176C18.461 55.7867 18.5144 55.4747 18.5464 55.24C18.2424 55.2827 17.9437 55.368 17.6504 55.496C17.6397 55.4107 17.6344 55.3333 17.6344 55.264C17.6344 55.008 17.7197 54.8373 17.8904 54.752C18.061 54.6613 18.3064 54.616 18.6264 54.616C18.6637 54.2213 18.6824 53.928 18.6824 53.736C18.6824 53.5387 18.6797 53.3813 18.6744 53.264C18.6744 53.1467 18.6744 53.0587 18.6744 53C18.9197 53.0373 19.109 53.1467 19.2424 53.328C19.3757 53.504 19.4424 53.7467 19.4424 54.056C19.4424 54.216 19.429 54.4107 19.4024 54.64C19.8664 54.64 20.1944 54.5627 20.3864 54.408C20.397 54.4827 20.4024 54.552 20.4024 54.616ZM24.7123 55.968C24.5736 56.2187 24.4563 56.5387 24.3603 56.928C24.2643 57.3173 24.2163 57.6853 24.2163 58.032C24.2163 58.3787 24.2323 58.7013 24.2643 59C24.1256 59.0107 24.043 59.016 24.0163 59.016C23.5523 59.016 23.3203 58.7893 23.3203 58.336C23.3203 58.1707 23.3763 57.76 23.4883 57.104C23.6056 56.448 23.6643 55.9573 23.6643 55.632C23.6643 55.3013 23.5416 55.136 23.2963 55.136C22.9923 55.136 22.683 55.4293 22.3683 56.016C22.0536 56.6027 21.8963 57.3147 21.8963 58.152C21.8963 58.4187 21.9123 58.7013 21.9443 59C21.8056 59.0107 21.723 59.016 21.6963 59.016C21.2323 59.016 21.0003 58.7893 21.0003 58.336C21.0003 58.2773 21.0536 57.88 21.1603 57.144C21.2723 56.408 21.3283 55.8267 21.3283 55.4C21.3283 54.968 21.283 54.5733 21.1923 54.216C21.5123 54.3387 21.7336 54.5147 21.8563 54.744C21.9843 54.9733 22.0483 55.256 22.0483 55.592C22.0483 55.7627 22.0296 55.9787 21.9923 56.24C22.1736 55.7067 22.4243 55.264 22.7443 54.912C23.0643 54.56 23.3576 54.384 23.6243 54.384C24.2216 54.384 24.5203 54.8453 24.5203 55.768C24.7176 55.3413 24.9443 55.0053 25.2003 54.76C25.4616 54.5093 25.7043 54.384 25.9283 54.384C26.2536 54.384 26.483 54.4827 26.6163 54.68C26.7496 54.872 26.8163 55.136 26.8163 55.472C26.8163 55.8027 26.763 56.2693 26.6563 56.872C26.555 57.4747 26.5043 57.9147 26.5043 58.192C26.5043 58.464 26.539 58.664 26.6083 58.792C26.6776 58.9147 26.795 59.0213 26.9603 59.112C26.891 59.1173 26.7923 59.12 26.6643 59.12C26.323 59.12 26.0696 59.0507 25.9043 58.912C25.7443 58.768 25.6643 58.5253 25.6643 58.184C25.6643 57.9867 25.7176 57.5893 25.8243 56.992C25.931 56.3893 25.9843 55.9467 25.9843 55.664C25.9843 55.312 25.8616 55.136 25.6163 55.136C25.4776 55.136 25.3283 55.2107 25.1683 55.36C25.0083 55.5093 24.8563 55.712 24.7123 55.968ZM28.1326 58.416C28.1272 58.3307 28.1246 58.1947 28.1246 58.008C28.1246 57.816 28.2126 57.0053 28.3886 55.576C28.5699 54.1467 28.6606 53.1653 28.6606 52.632C28.6606 52.0987 28.6286 51.752 28.5646 51.592C28.8632 51.704 29.0739 51.8693 29.1966 52.088C29.3192 52.3067 29.3806 52.5707 29.3806 52.88C29.3806 53.1893 29.3032 53.9893 29.1486 55.28C28.9939 56.5707 28.9166 57.6107 28.9166 58.4C28.9166 58.5707 28.9272 58.8107 28.9486 59.12C28.6552 59.0987 28.4472 59.0293 28.3246 58.912C28.2232 58.816 28.1592 58.6507 28.1326 58.416ZM33.9952 55.64C34.0965 55.752 34.1472 55.8827 34.1472 56.032C34.1472 56.1813 34.0965 56.328 33.9952 56.472C33.6325 56.6427 33.2379 56.8747 32.8112 57.168C32.3899 57.456 32.0352 57.6853 31.7472 57.856C31.4592 58.0267 31.2112 58.112 31.0032 58.112C30.7952 58.112 30.6432 57.9147 30.5472 57.52C30.8885 57.392 31.3872 57.1307 32.0432 56.736C32.7045 56.336 33.0859 56.1093 33.1872 56.056C33.0805 55.9973 32.7019 55.7733 32.0512 55.384C31.4005 54.9893 30.8992 54.7253 30.5472 54.592C30.6432 54.1973 30.7952 54 31.0032 54C31.2112 54 31.4592 54.0853 31.7472 54.256C32.0352 54.4267 32.3899 54.6587 32.8112 54.952C33.2379 55.24 33.6325 55.4693 33.9952 55.64Z" fill="#EC75CB"/>
</g>
<defs>
<filter id="filter0_d_181_59" x="0.680176" y="0.591797" width="46.9043" height="64.8643" filterUnits="userSpaceOnUse" color-interpolation-filters="sRGB">
<feFlood flood-opacity="0" result="BackgroundImageFix"/>
<feColorMatrix in="SourceAlpha" type="matrix" values="0 0 0 0 0 0 0 0 0 0 0 0 0 0 0 0 0 0 127 0" result="hardAlpha"/>
<feOffset dy="1"/>
<feGaussianBlur stdDeviation="2"/>
<feComposite in2="hardAlpha" operator="out"/>
<feColorMatrix type="matrix" values="0 0 0 0 0.979167 0 0 0 0 0.767014 0 0 0 0 0.868847 0 0 0 1 0"/>
<feBlend mode="normal" in2="BackgroundImageFix" result="effect1_dropShadow_181_59"/>
<feBlend mode="normal" in="SourceGraphic" in2="effect1_dropShadow_181_59" result="shape"/>
</filter>
</defs>
</svg>
