<svg width="297" height="289" viewBox="0 0 297 289" fill="none" xmlns="http://www.w3.org/2000/svg">
<mask id="mask0_158_191" style="mask-type:alpha" maskUnits="userSpaceOnUse" x="0" y="0" width="293" height="289">
<rect width="293" height="289" rx="7" fill="#FBFBFB"/>
</mask>
<g mask="url(#mask0_158_191)">
<path d="M118 180C118.833 178.833 120.6 175.6 121 172" stroke="#353535" stroke-width="0.5"/>
<path d="M98.5227 18.3125C106.023 21.8125 110.023 34.8125 110.523 38.8125C111.023 42.8125 108.523 49.3125 109.523 54.3125C110.523 59.3125 113.523 61.8125 113.523 69.3125C113.523 76.8125 110.523 83.8125 110.523 87.8125C110.523 91.8125 109.023 97.8125 93.0227 96.8125C73.8963 95.6171 67.0227 92.3125 63.0227 82.8125" stroke="#353535" stroke-width="0.5"/>
<path d="M48.5227 119.313C59.0227 120.313 69.6466 112.942 81.0227 119.313C90.707 124.736 108.845 130.611 121.023 135.312C121.702 135.575 120.37 138.572 121.023 138.812C123.772 139.823 126.429 139.175 128.523 139.812C150.189 124.479 192.553 93.7475 204.523 83.3125C224.023 66.3125 214.023 48.3125 217.023 43.3125C219.423 39.7125 231.523 32.9792 236.523 29.8125" stroke="#353535" stroke-width="0.5"/>
<path d="M92.7756 97.3125C89.7756 106.312 85.5227 111.312 85.5227 120.812" stroke="#353535" stroke-width="0.5"/>
<path d="M75.5227 12.3124C97.5227 9.91242 105.523 21.8125 108.523 31.8125C106.123 27.8124 101.023 26.3125 98.5227 25.3125C93.8777 23.4545 84.5227 33.8125 79.5227 43.8125C69.8686 63.1205 63.0228 67.8127 60.5227 66.3125C60.0227 66.3125 56.0227 55.8125 50.5227 57.8125C45.0227 59.8125 43.5227 61.8125 47.5227 76.3125C48.4373 79.6278 51.8412 81.3124 52.5227 84.3125C54.8221 94.4339 53.0654 103.956 51.5227 107.813C50.5227 103.813 35.0226 119.313 30.5226 122.313C26.0226 125.313 24.6679 124.712 20.0349 131C13.0349 140.5 13.0349 151.167 12.0349 157.5C4.53491 141 19.5227 122.312 28.5227 68.8124C37.5227 15.3124 48.0227 15.3124 75.5227 12.3124Z" fill="url(#paint0_linear_158_191)" stroke="#353535" stroke-width="0.5"/>
<path d="M115.5 171.312C131.5 172.312 137.023 175.812 143.523 171.312C150.023 166.812 206.523 116.312 219.023 99.8125" stroke="#353535" stroke-width="0.5"/>
<path d="M247.035 255.5L186.523 267.312L180.023 265.812L241.523 12.3125L362.023 27.8125L317.523 241.812L263.535 252.5" stroke="#353535" stroke-width="0.5"/>
<path d="M249.523 243.312L200.523 251.812L255.023 29.8125L352.523 40.8125L313.523 231.812L265.523 240.312" stroke="#353535" stroke-width="0.5"/>
<path d="M250.599 14.0915L186.523 266.812M347.523 40.3124L307.523 229.312L266.523 236.312M201.523 247.312L250.523 239.312" stroke="#353535" stroke-width="0.5"/>
<path d="M141.035 76C139.035 74 185.701 59.6667 216.535 50C216.535 50 216.535 50.5 217.035 54.5C187.535 64.3333 143.035 78 141.035 76Z" fill="#DBBBA4" stroke="#353535" stroke-width="0.5"/>
<path d="M120.805 138.408C109.5 161 117 177.5 117.805 178.908C121.468 185.31 85.356 176.646 70.0227 171.313" stroke="#353535" stroke-width="0.5"/>
<path d="M30.5227 122.312C9.59141 132.778 10.5286 156.345 12.5154 207C12.5219 207.166 12.3483 234.503 12.5154 234.5M104.023 263C104.992 258.395 103.16 228.701 104.023 215.5C104.94 201.469 109.983 192.547 108.523 181.812" stroke="#353535" stroke-width="0.5"/>
<path d="M68.0227 116.813C57.5227 115.313 49.346 111.313 51.346 107.313C49.5227 105.313 37.0227 117.312 30.5227 122.313" stroke="#353535" stroke-width="0.5"/>
<path d="M282.523 248.812L281.523 253.812L262.535 258M246.035 261L225.035 265.5L225.023 260L247.035 255.5" stroke="#353535" stroke-width="0.5"/>
<path d="M247.523 278.812L252.523 254.312L278.523 123.312H286.523L262.449 258.232M259.523 274.812L262.523 257.812" stroke="#353535" stroke-width="0.5"/>
<path d="M278.523 123.312L273.523 127.312L247.023 255.812" stroke="#353535" stroke-width="0.5"/>
<path d="M247.035 255.5L242.523 277.812" stroke="#353535" stroke-width="0.5"/>
<path d="M225.035 265.5L218.023 261.312" stroke="#353535" stroke-width="0.5"/>
<path d="M206.449 81.3125C202.449 82.3125 199.449 81.3125 212.449 101.312C215.449 105.812 216.449 105.812 216.449 102.812" stroke="#D53682"/>
</g>
<defs>
<linearGradient id="paint0_linear_158_191" x1="59.5349" y1="16.5" x2="29.0349" y2="136.5" gradientUnits="userSpaceOnUse">
<stop stop-color="#5C5C5C"/>
<stop offset="0.251195" stop-color="#4F4F4F"/>
<stop offset="0.713542" stop-color="#AF3670"/>
</linearGradient>
</defs>
</svg>
